<svg xmlns="http://www.w3.org/2000/svg" xmlns:xlink="http://www.w3.org/1999/xlink" width="123.825" height="126.996" viewBox="0 0 123.825 126.996">
  <defs>
    <clipPath id="clip-path">
      <rect id="Rectángulo_479479" data-name="Rectángulo 479479" width="87.6" height="93.786" fill="none"/>
    </clipPath>
  </defs>
  <g id="Grupo_1212796" data-name="Grupo 1212796" transform="translate(-394 -3408.335)">
    <path id="Trazado_1044244" data-name="Trazado 1044244" d="M23.495,5.506C10.84,19.028-.115,57.157,0,76c.159,25.841,32.748,48.037,50.3,47.786,29.429-.42,43.638-24.436,44.94-46.218,2.784-46.6-51.263-93.949-71.749-72.06" transform="translate(517.825 3431.9) rotate(90)" fill="#194e57"/>
    <path id="Polígono_47" data-name="Polígono 47" d="M3.263,3.015a2,2,0,0,1,3.468,0L8.27,5.693a2,2,0,0,1-1.734,3H3.457a2,2,0,0,1-1.734-3Z" transform="translate(402.69 3492.124) rotate(90)" fill="#cef1d4"/>
    <path id="Polígono_48" data-name="Polígono 48" d="M3.263,3.015a2,2,0,0,1,3.468,0L8.27,5.693a2,2,0,0,1-1.734,3H3.457a2,2,0,0,1-1.734-3Z" transform="translate(478.959 3528.264) rotate(135)" fill="#ff9684"/>
    <path id="Polígono_49" data-name="Polígono 49" d="M3.263,3.015a2,2,0,0,1,3.468,0L8.27,5.693a2,2,0,0,1-1.734,3H3.457a2,2,0,0,1-1.734-3Z" transform="translate(511.881 3431.439) rotate(135)" fill="#c5edf4"/>
    <path id="Trazado_1044260" data-name="Trazado 1044260" d="M22.026,8.226a8.718,8.718,0,0,0-16.709,0,9.273,9.273,0,0,0-.079,4.414c.552,1.813,2.128,4.965,6.226,9.852a4.505,4.505,0,0,0,.552.631,4.131,4.131,0,0,0,.867.788,1.669,1.669,0,0,0,1.5,0,4.131,4.131,0,0,0,.867-.788,4.506,4.506,0,0,1,.552-.631c4.1-4.808,5.675-8.039,6.148-9.852A7.666,7.666,0,0,0,22.026,8.226ZM17.613,10.67a3.941,3.941,0,1,1-3.941-3.941A3.9,3.9,0,0,1,17.613,10.67Z" transform="translate(495.474 3437.675)" fill="#ff9684"/>
    <g id="Grupo_1214715" data-name="Grupo 1214715" transform="translate(407.283 3408.335)">
      <g id="Grupo_1214714" data-name="Grupo 1214714" clip-path="url(#clip-path)">
        <path id="Trazado_1056148" data-name="Trazado 1056148" d="M52.884,44.47a7.552,7.552,0,0,1,6.236,1.5,8.994,8.994,0,0,1,3.872,5.871c.434,2.877-.824,3.512-1.376,5.9a35.085,35.085,0,0,0-.221,4.268,11.985,11.985,0,0,1-2.5,5.844,12.55,12.55,0,0,1-6.813,4.555l-3.622-.18a13,13,0,0,1-7.4-5.621c-2.232-3.657-2.484-11.531-1.38-15.621A8.332,8.332,0,0,1,43.6,46.263,9.571,9.571,0,0,1,50.7,45.1a16.326,16.326,0,0,0,2.183-.626" transform="translate(-7.033 -7.982)" fill="#1d2f48"/>
        <path id="Trazado_1056149" data-name="Trazado 1056149" d="M55.33,44.5l.328,2.934a2.016,2.016,0,0,0,1.986.571l.791-.6a7.413,7.413,0,0,1,4.079,4.146,5.179,5.179,0,0,1-.026,2.235l-1.4,1.676a19.144,19.144,0,0,0-1.112-3.139c-1.254-1.83-4.359-1.447-6.053-2.192a8.7,8.7,0,0,1-1.295-1.117,14.468,14.468,0,0,1,.516-3.89A16.2,16.2,0,0,0,55.33,44.5" transform="translate(-9.478 -8.015)" fill="#f8a865"/>
        <path id="Trazado_1056150" data-name="Trazado 1056150" d="M59.19,56.26l.163.661c.657,3.763.208,7.654-2.139,10.736a7.638,7.638,0,0,1-4.7,3.035,8.633,8.633,0,0,1-6.5-1.772,10.485,10.485,0,0,1-3.727-7.147c-.25-3.073-.712-8.637,1.395-11.017a4.951,4.951,0,0,1,3.28-1.845,2.5,2.5,0,0,0,.547,1.876A5.144,5.144,0,0,0,50.34,50l.389-.194a8.7,8.7,0,0,0,1.3,1.117c1.694.744,4.8.362,6.053,2.191A19.323,19.323,0,0,1,59.19,56.26" transform="translate(-7.576 -8.808)" fill="#f6bc94"/>
        <path id="Trazado_1056151" data-name="Trazado 1056151" d="M27.571,73.766c-2.366,1.952-22.958,1.015-27.295,1C.2,72.122-.382,67.522.417,65.141c1.123-3.346,7.546-5.518,10.5-6.859a12.833,12.833,0,0,1-4.054-8.409c-.2-2.824-.2-6.539,1.795-8.76a8.7,8.7,0,0,1,6.515-2.99c2.672-.108,4.787.278,6.782,2.144,2.079,1.946,2.579,4.478,2.622,7.22.071,4.526-.6,7.609-3.845,10.9,2.749,1.338,7.22,2.578,9.283,4.883,1.954,2.183,1.739,4.846,1.6,7.582-.855,1.112-1.464,1.206-2.749,1.672L28,72.714Z" transform="translate(0 -6.862)" fill="#1d2f48"/>
        <path id="Trazado_1056152" data-name="Trazado 1056152" d="M15.17,63.99c2.134,1.781,4.974-.093,6.695,1.2-.11,1.525-1.534,3.071-2.422,4.285a2.942,2.942,0,0,1-1.433,1.069,25.494,25.494,0,0,1-2.651-3.662c-.719-1.309-.573-1.538-.189-2.9" transform="translate(-2.674 -11.524)" fill="#ece8e6"/>
        <path id="Trazado_1056153" data-name="Trazado 1056153" d="M15.863,40.852l2.926.023a6.446,6.446,0,0,1,4.117,2.352c1.638,2.288,1.563,6.454,1.013,9.118-.579,2.809-2.075,4.226-4.369,5.788a7.873,7.873,0,0,1-3.28-.067,7.454,7.454,0,0,1-3.7-3.645,13.226,13.226,0,0,1-.922-9.435c.777-2.315,2.147-3.085,4.212-4.135" transform="translate(-2.009 -7.357)" fill="#f4d0a6"/>
        <path id="Trazado_1056154" data-name="Trazado 1056154" d="M28.167,78.916l-.223-1c-1.323-.881-4.9-.446-6.526-.449l-18.112.007.052-6.69a38.877,38.877,0,0,1,6.508-4.081c1.314,2.02,3.087,5.179,5.008,6.613.757.566,1.81.248,2.708.162a36.106,36.106,0,0,0,5.328-6.49,47.5,47.5,0,0,1,6.465,3.737,28.626,28.626,0,0,1,.089,6.947l-.864.187Z" transform="translate(-0.595 -12.013)" fill="#628ca8"/>
        <path id="Trazado_1056155" data-name="Trazado 1056155" d="M54.657.136,57.112,0C62.27,2.621,58.62,7.981,60.9,11.886l.128.214a13.511,13.511,0,0,1,.858,9.928,15.556,15.556,0,0,1-7.571,9.227c-3.925,2.09-8.375,1.521-12.457.323a19.576,19.576,0,0,1-4.177-2.6,14.7,14.7,0,0,1-5.113-9.813c-.22-2.674-.153-10.588,1.414-12.392l.165-.186C38.172,2.018,48.816.867,54.657.136" transform="translate(-5.849)" fill="#1d2f48"/>
        <path id="Trazado_1056156" data-name="Trazado 1056156" d="M36.642,8.9a6.876,6.876,0,0,1,2.676-2.038c4.009-1.846,8.71-2.721,13.041-3.472,2.012-.348,3.707-.849,5.663-.132-1.4,1.5-4.316,1.887-6.238,2.468-4.5,1.36-8.419,3.019-13.172,3.171Z" transform="translate(-6.599 -0.52)" fill="#abd39d"/>
        <path id="Trazado_1056157" data-name="Trazado 1056157" d="M57.97,3.333l.95,11.444c-5.212-.055-10.176-.484-15.358-.934-1.641-.143-3.576.029-5.13-.489a5.767,5.767,0,0,0-1.512-.175l.241-.617,1.033.378.619-.6-.452-.069a11.752,11.752,0,0,1-1.613-.406,3.531,3.531,0,0,1-.159-2.893l1.97,0c4.753-.152,8.675-1.81,13.173-3.17,1.921-.581,4.837-.972,6.237-2.468" transform="translate(-6.548 -0.6)" fill="#acd276"/>
        <path id="Trazado_1056158" data-name="Trazado 1056158" d="M35.647,22.661a11.776,11.776,0,0,1,.13-3.936c5.889-.508,12.006,1.025,17.9,1.334,2.148.112,4.5.43,6.514-.5a8.45,8.45,0,0,1-.224,5.363,8.424,8.424,0,0,1-1.306,3.079,13.221,13.221,0,0,1-8.481,5.5,12.676,12.676,0,0,1-9.309-2.239,12.267,12.267,0,0,1-5.226-8.608" transform="translate(-6.402 -3.354)" fill="#f6bc94"/>
        <path id="Trazado_1056159" data-name="Trazado 1056159" d="M67.865,72.39c-.106-3.965-.559-7.1,2.371-10.17,1.662-1.742,4.127-2.786,6.261-3.834a18.61,18.61,0,0,1-3.171-14.7,6.83,6.83,0,0,1,.557-1.524L74,41.917a8.076,8.076,0,0,1,4.876-4.177,10.444,10.444,0,0,1,7.643.307,7.889,7.889,0,0,1,3.964,4.728c1.085,3.449.928,9.361-.741,12.6a13.246,13.246,0,0,1-1.75,2.548c4.343,1.714,9.5,3.417,11.442,8.133.777,1.892.109,7.11.088,9.345l-.242.4-24.272-.186a1.192,1.192,0,0,1-1.039-.56,5.585,5.585,0,0,1-.886-2.1c-1.462-.873-3.558-.594-5.216-.567" transform="translate(-12.206 -6.693)" fill="#1d2f48"/>
        <path id="Trazado_1056160" data-name="Trazado 1056160" d="M88.186,64.6a2.922,2.922,0,0,1,.472.7l-.41,1.107c-.581,1.247-2.479,4.186-3.731,4.644l-1.224-1.461-2.975-4.44.167-.194a16.783,16.783,0,0,0,7.7-.358" transform="translate(-14.465 -11.634)" fill="#eecfc9"/>
        <path id="Trazado_1056161" data-name="Trazado 1056161" d="M78.014,53.774a12.114,12.114,0,0,1-.7-4.555c-.065-2.4-.266-5.113,1.538-6.937,1.914-1.935,3.786-2.061,6.4-2.069,1.9.462,3.243.963,4.305,2.693,1.264,2.056.867,8.478.179,10.806a6.708,6.708,0,0,1-3.42,4.068,5.457,5.457,0,0,1-4.146.421,6.58,6.58,0,0,1-3.689-3.308,7.029,7.029,0,0,1-.465-1.118" transform="translate(-13.916 -7.242)" fill="#f6bc94"/>
        <path id="Trazado_1056162" data-name="Trazado 1056162" d="M67.884,77.646l2.419-.492c.789-1.864-.314-4.73.868-6.334a13.611,13.611,0,0,1,4.938-4.072c1.9,3.053,3.668,6.376,6.379,8.8a60.857,60.857,0,0,0,6.827-9.194c2.518,1.083,6.661,2.729,7.61,5.556.59,1.757.2,4.66.158,6.54l-15.2-.034a73.61,73.61,0,0,1-8.781-.2c-1.46-.873-3.556-.594-5.215-.567" transform="translate(-12.225 -11.949)" fill="#7bd1ab"/>
        <path id="Trazado_1056163" data-name="Trazado 1056163" d="M45.754,78.368l3.622.179a14.253,14.253,0,0,0,3.159,1.872c4.695,1.86,10.4,3.828,14.336,7.013a12.725,12.725,0,0,1,4.068,4.963c.917,2.309.562,5.261.613,7.706.054,2.581.374,5.179.639,7.746l-47.965.053L24,107.533c.854-4.9-.455-10.619,1.07-15.29,1.991-6.1,12.623-9.571,17.94-12.173a10.433,10.433,0,0,0,2.74-1.7" transform="translate(-4.323 -14.113)" fill="#1d2f48"/>
        <path id="Trazado_1056164" data-name="Trazado 1056164" d="M49.929,78.368l3.622.179a14.253,14.253,0,0,0,3.159,1.872,5.633,5.633,0,0,1-2.132,2.512c-1.372.784-3.567.471-4.991-.075-1.409-.54-1.791-1.538-2.4-2.785a10.433,10.433,0,0,0,2.74-1.7" transform="translate(-8.498 -14.113)" fill="#eecfc9"/>
        <path id="Trazado_1056165" data-name="Trazado 1056165" d="M44.271,84.549c2.32,1.423,3.937,2.535,6.748,2.651l.371.014c2.729.116,4.591-.963,6.914-2.216l-2.669,4.757L51.843,94.61Z" transform="translate(-7.973 -15.226)" fill="#c7e7ef"/>
        <path id="Trazado_1056166" data-name="Trazado 1056166" d="M39.6,86.459a54.092,54.092,0,0,0,9.367,12.266c3.189-3.941,6.351-7.68,8.843-12.12,3.15,1.377,6.467,2.657,8.985,5.074.708.679,2.486,2.647,2.688,3.584a22.3,22.3,0,0,1,.076,3.7l.162,7.847-42.313-.026c0-3.318-.683-8.637.317-11.706,1.5-4.594,7.935-6.777,11.875-8.62" transform="translate(-4.895 -15.57)" fill="#7bd1ab"/>
      </g>
    </g>
  </g>
</svg>
