<svg xmlns="http://www.w3.org/2000/svg" xmlns:xlink="http://www.w3.org/1999/xlink" width="416" height="318.232" viewBox="0 0 416 318.232">
  <defs>
    <clipPath id="clip-path">
      <rect id="Rectángulo_480134" data-name="Rectángulo 480134" width="379" height="228.826" fill="none"/>
    </clipPath>
  </defs>
  <g id="Grupo_1182332" data-name="Grupo 1182332" transform="translate(-497.629 -2210)">
    <g id="Grupo_1213019" data-name="Grupo 1213019">
      <rect id="Rectángulo_456474" data-name="Rectángulo 456474" width="416" height="318.233" transform="translate(497.629 2210)" fill="#eefbf1"/>
      <g id="Grupo_1215935" data-name="Grupo 1215935" transform="translate(515 2262.083)">
        <g id="Grupo_1215934" data-name="Grupo 1215934" clip-path="url(#clip-path)">
          <path id="Trazado_1071979" data-name="Trazado 1071979" d="M227.4,50.938c14.1,0,25.535,6.84,25.535,15.278S241.5,81.494,227.4,81.494s-25.535-6.84-25.535-15.277S213.3,50.938,227.4,50.938" transform="translate(11.012 2.779)" fill="#ecebff"/>
          <path id="Trazado_1071980" data-name="Trazado 1071980" d="M354.944,141.412C352.061,118.1,337.679,94.534,314.622,87.6c-29.168-8.765-60.722,10.984-90.552,4.673-31.183-6.6-49.273-38.627-77.523-53.068-27.355-13.982-62.611-9.157-87.471,8.7s-39.653,47.076-43.29,76.937,2.556,59.025,14.488,86.762l314.9-.852c6.3-22.67,12.654-46.026,9.77-69.341" transform="translate(0.805 1.696)" fill="#cef1d4"/>
          <path id="Trazado_1071981" data-name="Trazado 1071981" d="M32.608,172.487c-3.267-10.459,12.115-10.306,17.341-6.869a88.353,88.353,0,0,0-4.8-13.473c-4.323,2.452-8.3,6.213-13.046,7.483-11.166.769-5.625-17.616,12.437-8.806A86.287,86.287,0,0,0,37.407,138.4c-4.436,2.288-8.571,5.917-13.391,7-11.107.2-5.081-17.433,12.273-8.582A78.994,78.994,0,0,0,27.7,126.808c-4.579,2.167-8.889,5.708-13.814,6.655-10.877-.231-4.859-17,11.769-8.6a73.789,73.789,0,0,0-7.872-6.276c-4.822-.434-10.008.475-14.6-1.232-6.663-3.374-1.735-11.847,4.479-9.516a19.158,19.158,0,0,1,10.409,9.913,73.761,73.761,0,0,1,8.393,6.711C18.329,106.05,33.9,99.27,34.121,111.227c-.821,5.308-3.994,9.959-5.929,14.892a80.643,80.643,0,0,1,8.682,10.1c-4.041-20.507,12.8-23.124,10.256-11.267-1.993,4.96-6.1,8.641-9.074,12.933a87.041,87.041,0,0,1,7.173,12.5,23.541,23.541,0,0,1,3.464-14.591c3.858-6.037,12.182-2.452,8.489,4.739-2.925,4.524-7.687,7.3-11.45,10.937l.08.181.086.008-.063.042a90.584,90.584,0,0,1,4.7,13.007c6.154-20.591,21.824-13.5,14.109-4.309-3.923,3.328-9.116,4.2-13.539,6.471.329,1.029,3.89,17.8,1.678,15.451a89.966,89.966,0,0,0-2.391-14.993c-5.131,2.5-12.826,11.339-17.782,5.158" transform="translate(0 5.741)" fill="#9aad2e"/>
          <path id="Trazado_1071982" data-name="Trazado 1071982" d="M317.63,29.008H193.413a15.2,15.2,0,0,0-15.16,16.256l5.554,79.6A15.2,15.2,0,0,0,198.967,139h37.221l-3.5,29.235L268.526,139h43.55a15.2,15.2,0,0,0,15.16-14.138l5.554-79.6a15.2,15.2,0,0,0-15.16-16.256" transform="translate(9.722 1.582)" fill="#ff6993"/>
          <path id="Trazado_1071983" data-name="Trazado 1071983" d="M326.163,36.569a11.807,11.807,0,0,0-9-4.026H193.488a11.808,11.808,0,0,0-9,4.026,11.348,11.348,0,0,0-2.714,8.242l5.554,79.6a11.507,11.507,0,0,0,11.442,10.672H311.883a11.507,11.507,0,0,0,11.442-10.672l5.554-79.6a11.344,11.344,0,0,0-2.715-8.242" transform="translate(9.914 1.775)" fill="#fff"/>
          <path id="Trazado_1071984" data-name="Trazado 1071984" d="M328.481,178.454c3.267-10.459-12.115-10.306-17.341-6.869a88.368,88.368,0,0,1,4.8-13.474c4.323,2.452,8.3,6.214,13.046,7.484,11.166.769,5.625-17.617-12.437-8.807a86.52,86.52,0,0,1,7.131-12.423c4.436,2.292,8.571,5.917,13.391,7.005,11.107.2,5.081-17.435-12.273-8.582a79,79,0,0,1,8.592-10.014c4.579,2.167,8.889,5.709,13.814,6.653,10.877-.229,4.859-17-11.769-8.6a73.757,73.757,0,0,1,7.872-6.272c4.822-.438,10.008.472,14.6-1.233,6.663-3.375,1.735-11.846-4.479-9.515a19.142,19.142,0,0,0-10.408,9.913,73.315,73.315,0,0,0-8.393,6.71c8.133-18.413-7.442-25.193-7.659-13.238.821,5.309,3.994,9.958,5.929,14.893a80.718,80.718,0,0,0-8.682,10.1c4.041-20.508-12.8-23.122-10.254-11.268,1.993,4.962,6.1,8.641,9.073,12.934a87.2,87.2,0,0,0-7.173,12.5A23.532,23.532,0,0,0,312.4,141.76c-3.858-6.038-12.181-2.452-8.488,4.739,2.925,4.525,7.687,7.294,11.45,10.938l-.081.18-.085.009c.021.014.042.026.063.041a90.634,90.634,0,0,0-4.7,13.007c-6.154-20.589-21.824-13.5-14.109-4.308,3.923,3.327,9.116,4.2,13.538,6.47-.328,1.029-3.889,17.8-1.677,15.452A89.835,89.835,0,0,1,310.7,173.3c5.13,2.5,12.825,11.339,17.781,5.158" transform="translate(16.057 6.067)" fill="#9aad2e"/>
          <rect id="Rectángulo_480056" data-name="Rectángulo 480056" width="100.527" height="120.714" transform="translate(215.219 7.353)" fill="#ffb70f"/>
          <rect id="Rectángulo_480057" data-name="Rectángulo 480057" width="100.527" height="5.962" transform="translate(215.219 122.104)" fill="#f9a600"/>
          <rect id="Rectángulo_480058" data-name="Rectángulo 480058" width="8.184" height="21.06" transform="translate(287.773 96.762)" fill="#fff"/>
          <rect id="Rectángulo_480059" data-name="Rectángulo 480059" width="6.922" height="19.797" transform="translate(288.404 97.394)" fill="#22c2f0"/>
          <rect id="Rectángulo_480060" data-name="Rectángulo 480060" width="8.184" height="0.632" transform="translate(287.773 100.119)" fill="#fff"/>
          <rect id="Rectángulo_480061" data-name="Rectángulo 480061" width="10.094" height="1.387" transform="translate(286.818 117.13)" fill="#fff"/>
          <rect id="Rectángulo_480062" data-name="Rectángulo 480062" width="8.184" height="21.06" transform="translate(302.394 96.762)" fill="#fff"/>
          <rect id="Rectángulo_480063" data-name="Rectángulo 480063" width="6.922" height="19.797" transform="translate(303.026 97.394)" fill="#22c2f0"/>
          <rect id="Rectángulo_480064" data-name="Rectángulo 480064" width="8.184" height="0.632" transform="translate(302.394 100.119)" fill="#fff"/>
          <rect id="Rectángulo_480065" data-name="Rectángulo 480065" width="10.094" height="1.387" transform="translate(301.44 117.13)" fill="#fff"/>
          <rect id="Rectángulo_480066" data-name="Rectángulo 480066" width="8.184" height="21.06" transform="translate(220.386 96.762)" fill="#fff"/>
          <rect id="Rectángulo_480067" data-name="Rectángulo 480067" width="6.922" height="19.797" transform="translate(221.017 97.394)" fill="#22c2f0"/>
          <rect id="Rectángulo_480068" data-name="Rectángulo 480068" width="8.184" height="0.632" transform="translate(220.386 100.119)" fill="#fff"/>
          <rect id="Rectángulo_480069" data-name="Rectángulo 480069" width="10.094" height="1.387" transform="translate(219.431 117.13)" fill="#fff"/>
          <rect id="Rectángulo_480070" data-name="Rectángulo 480070" width="8.184" height="21.06" transform="translate(235.008 96.762)" fill="#fff"/>
          <rect id="Rectángulo_480071" data-name="Rectángulo 480071" width="6.922" height="19.797" transform="translate(235.639 97.394)" fill="#22c2f0"/>
          <rect id="Rectángulo_480072" data-name="Rectángulo 480072" width="8.184" height="0.632" transform="translate(235.008 100.119)" fill="#fff"/>
          <rect id="Rectángulo_480073" data-name="Rectángulo 480073" width="10.094" height="1.387" transform="translate(234.053 117.13)" fill="#fff"/>
          <path id="Trazado_1071985" data-name="Trazado 1071985" d="M251.822,94.2v22.713H236.214V105.185h6.222v-.771h-6.222V94.2Z" transform="translate(12.885 5.139)" fill="#22c2f0"/>
          <rect id="Rectángulo_480074" data-name="Rectángulo 480074" width="9.786" height="22.713" transform="translate(265.187 99.342)" fill="#22c2f0"/>
          <rect id="Rectángulo_480075" data-name="Rectángulo 480075" width="6.413" height="10.211" transform="translate(275.454 99.342)" fill="#22c2f0"/>
          <rect id="Rectángulo_480076" data-name="Rectángulo 480076" width="6.413" height="11.731" transform="translate(275.454 110.323)" fill="#22c2f0"/>
          <rect id="Rectángulo_480077" data-name="Rectángulo 480077" width="32.768" height="3.133" transform="translate(249.098 95.438)" fill="#22c2f0"/>
          <rect id="Rectángulo_480078" data-name="Rectángulo 480078" width="0.48" height="3.133" transform="translate(266.313 109.491)" fill="#fff"/>
          <rect id="Rectángulo_480079" data-name="Rectángulo 480079" width="0.48" height="3.133" transform="translate(263.101 109.391)" fill="#fff"/>
          <rect id="Rectángulo_480080" data-name="Rectángulo 480080" width="0.482" height="22.713" transform="translate(255.32 99.342)" fill="#fff"/>
          <path id="Trazado_1071986" data-name="Trazado 1071986" d="M235.563,117.734H269.7V89.855H235.563Zm16.294-.581H236.247V105.42h6.223v-.77h-6.223V94.44h15.609Zm10.266,0h-9.786V94.44h9.786Zm6.894,0H262.6V105.42h6.412Zm0-12.5H262.6V94.44h6.412Zm0-10.981H236.247V90.536h32.769Z" transform="translate(12.85 4.902)" fill="#fff"/>
          <rect id="Rectángulo_480081" data-name="Rectángulo 480081" width="104.226" height="1.685" transform="translate(213.369 128.067)" fill="#512691"/>
          <rect id="Rectángulo_480082" data-name="Rectángulo 480082" width="105.299" height="3.112" transform="translate(212.832 6.571)" fill="#512691"/>
          <rect id="Rectángulo_480083" data-name="Rectángulo 480083" width="100.527" height="2.862" transform="translate(215.219 9.683)" fill="#f9a600"/>
          <rect id="Rectángulo_480084" data-name="Rectángulo 480084" width="100.527" height="2.228" transform="translate(215.219 19.541)" fill="#f9a600"/>
          <rect id="Rectángulo_480085" data-name="Rectángulo 480085" width="105.299" height="1.555" transform="translate(212.832 18.96)" fill="#512691"/>
          <path id="Trazado_1071987" data-name="Trazado 1071987" d="M214.394,76.02v7.71a3.444,3.444,0,0,1-1.26,2.111l-.009.007a2.311,2.311,0,0,1-1.645.471,2.609,2.609,0,0,1-1.842-1.238l-.05-.077c-.015-.025-.031-.05-.044-.075a3.807,3.807,0,0,1-.44-1.2V76.02Z" transform="translate(11.407 4.147)" fill="#fff"/>
          <path id="Trazado_1071988" data-name="Trazado 1071988" d="M209.1,83.332a2.646,2.646,0,0,0,5.291,0Z" transform="translate(11.407 4.546)" fill="#e8efff"/>
          <path id="Trazado_1071989" data-name="Trazado 1071989" d="M219.411,76.02v7.71a3.439,3.439,0,0,1-1.268,2.116.624.624,0,0,1-.057.04,2.281,2.281,0,0,1-1.59.433,2.609,2.609,0,0,1-1.841-1.238l-.05-.077-.045-.075a3.807,3.807,0,0,1-.44-1.2V76.02Z" transform="translate(11.68 4.147)" fill="#ff6a9a"/>
          <path id="Trazado_1071990" data-name="Trazado 1071990" d="M214.12,83.332a2.646,2.646,0,0,0,5.291,0Z" transform="translate(11.68 4.546)" fill="#f74887"/>
          <path id="Trazado_1071991" data-name="Trazado 1071991" d="M209.377,76.02v7.71a3.439,3.439,0,0,1-1.268,2.116.5.5,0,0,1-.057.04,2.281,2.281,0,0,1-1.59.433,2.609,2.609,0,0,1-1.841-1.238l-.05-.077-.045-.075a3.806,3.806,0,0,1-.44-1.2V76.02Z" transform="translate(11.133 4.147)" fill="#ff6a9a"/>
          <path id="Trazado_1071992" data-name="Trazado 1071992" d="M204.086,83.332a2.646,2.646,0,0,0,5.291,0Z" transform="translate(11.133 4.546)" fill="#f74887"/>
          <path id="Trazado_1071993" data-name="Trazado 1071993" d="M224.428,76.02v7.71a3.445,3.445,0,0,1-1.26,2.111l-.01.007a2.311,2.311,0,0,1-1.645.471,2.611,2.611,0,0,1-1.84-1.235l-.006-.008c-.015-.024-.031-.049-.044-.072s-.028-.045-.042-.067l-.006-.011a3.838,3.838,0,0,1-.438-1.2V76.02Z" transform="translate(11.954 4.147)" fill="#fff"/>
          <path id="Trazado_1071994" data-name="Trazado 1071994" d="M219.137,83.332a2.646,2.646,0,0,0,5.291,0Z" transform="translate(11.954 4.546)" fill="#e8efff"/>
          <path id="Trazado_1071995" data-name="Trazado 1071995" d="M229.446,76.02v7.71a3.444,3.444,0,0,1-1.26,2.111l-.009.007a2.311,2.311,0,0,1-1.645.471,2.611,2.611,0,0,1-1.84-1.235l-.006-.008c-.015-.024-.031-.049-.044-.072s-.028-.045-.042-.067l-.006-.011a3.838,3.838,0,0,1-.438-1.2V76.02Z" transform="translate(12.228 4.147)" fill="#ff6a9a"/>
          <path id="Trazado_1071996" data-name="Trazado 1071996" d="M224.155,83.332a2.646,2.646,0,0,0,5.291,0Z" transform="translate(12.228 4.546)" fill="#f74887"/>
          <path id="Trazado_1071997" data-name="Trazado 1071997" d="M234.463,76.02v7.71a3.444,3.444,0,0,1-1.26,2.111l-.009.007a2.311,2.311,0,0,1-1.645.471,2.611,2.611,0,0,1-1.84-1.235l-.006-.008c-.014-.022-.028-.043-.041-.065s-.033-.054-.048-.081a3.8,3.8,0,0,1-.44-1.2V76.02Z" transform="translate(12.501 4.147)" fill="#fff"/>
          <path id="Trazado_1071998" data-name="Trazado 1071998" d="M229.172,83.332a2.646,2.646,0,0,0,5.291,0Z" transform="translate(12.501 4.546)" fill="#e8efff"/>
          <path id="Trazado_1071999" data-name="Trazado 1071999" d="M239.481,76.02v7.71a3.445,3.445,0,0,1-1.269,2.116.5.5,0,0,1-.057.04,2.28,2.28,0,0,1-1.589.433,2.609,2.609,0,0,1-1.84-1.235l-.006-.008c-.014-.022-.028-.043-.041-.065s-.033-.054-.049-.081a3.8,3.8,0,0,1-.44-1.2V76.02Z" transform="translate(12.775 4.147)" fill="#ff6a9a"/>
          <path id="Trazado_1072000" data-name="Trazado 1072000" d="M234.189,83.332a2.646,2.646,0,0,0,5.291,0Z" transform="translate(12.775 4.546)" fill="#f74887"/>
          <path id="Trazado_1072001" data-name="Trazado 1072001" d="M244.5,76.02v7.71a3.444,3.444,0,0,1-1.259,2.11l-.011.008a2.308,2.308,0,0,1-1.645.471,2.607,2.607,0,0,1-1.839-1.235l-.007-.008c-.013-.022-.027-.043-.04-.065s-.033-.054-.049-.081a3.8,3.8,0,0,1-.44-1.2V76.02Z" transform="translate(13.049 4.147)" fill="#fff"/>
          <path id="Trazado_1072002" data-name="Trazado 1072002" d="M239.206,83.332a2.646,2.646,0,0,0,5.291,0Z" transform="translate(13.049 4.546)" fill="#e8efff"/>
          <path id="Trazado_1072003" data-name="Trazado 1072003" d="M249.515,76.02v7.71a3.444,3.444,0,0,1-1.26,2.111l-.009.007a2.311,2.311,0,0,1-1.645.471,2.614,2.614,0,0,1-1.84-1.235l-.006-.008c-.015-.024-.031-.049-.044-.072s-.028-.045-.042-.067l-.006-.011a3.838,3.838,0,0,1-.438-1.2V76.02Z" transform="translate(13.322 4.147)" fill="#ff6a9a"/>
          <path id="Trazado_1072004" data-name="Trazado 1072004" d="M244.223,83.332a2.646,2.646,0,0,0,5.291,0Z" transform="translate(13.322 4.546)" fill="#f74887"/>
          <path id="Trazado_1072005" data-name="Trazado 1072005" d="M254.532,76.02v7.71a3.444,3.444,0,0,1-1.26,2.111l-.009.007a2.311,2.311,0,0,1-1.645.471,2.609,2.609,0,0,1-1.842-1.238c-.017-.026-.034-.052-.048-.077s-.028-.045-.042-.069l-.006-.012a3.826,3.826,0,0,1-.438-1.195V76.019h5.292Z" transform="translate(13.596 4.147)" fill="#fff"/>
          <path id="Trazado_1072006" data-name="Trazado 1072006" d="M249.241,83.332a2.646,2.646,0,0,0,5.291,0Z" transform="translate(13.596 4.546)" fill="#e8efff"/>
          <path id="Trazado_1072007" data-name="Trazado 1072007" d="M259.549,76.02v7.71a3.441,3.441,0,0,1-1.269,2.116.429.429,0,0,1-.057.04,2.278,2.278,0,0,1-1.589.433,2.609,2.609,0,0,1-1.842-1.238l-.05-.077c-.015-.025-.031-.05-.044-.075a3.781,3.781,0,0,1-.44-1.2V76.02Z" transform="translate(13.87 4.147)" fill="#ff6a9a"/>
          <path id="Trazado_1072008" data-name="Trazado 1072008" d="M254.258,83.332a2.646,2.646,0,0,0,5.291,0Z" transform="translate(13.87 4.546)" fill="#f74887"/>
          <path id="Trazado_1072009" data-name="Trazado 1072009" d="M264.566,76.02v7.71a3.439,3.439,0,0,1-1.259,2.11l-.011.008a2.308,2.308,0,0,1-1.645.471,2.609,2.609,0,0,1-1.841-1.238L259.76,85c-.015-.025-.031-.05-.044-.075a3.781,3.781,0,0,1-.44-1.2V76.02Z" transform="translate(14.144 4.147)" fill="#fff"/>
          <path id="Trazado_1072010" data-name="Trazado 1072010" d="M259.275,83.332a2.646,2.646,0,0,0,5.291,0Z" transform="translate(14.143 4.546)" fill="#e8efff"/>
          <path id="Trazado_1072011" data-name="Trazado 1072011" d="M269.583,76.02v7.71a3.444,3.444,0,0,1-1.26,2.111l-.009.007a2.311,2.311,0,0,1-1.645.471,2.611,2.611,0,0,1-1.84-1.235l-.006-.008c-.015-.024-.031-.049-.044-.072s-.028-.045-.042-.067l-.006-.011a3.838,3.838,0,0,1-.438-1.2V76.02Z" transform="translate(14.417 4.147)" fill="#ff6a9a"/>
          <path id="Trazado_1072012" data-name="Trazado 1072012" d="M264.292,83.332a2.646,2.646,0,0,0,5.291,0Z" transform="translate(14.417 4.546)" fill="#f74887"/>
          <path id="Trazado_1072013" data-name="Trazado 1072013" d="M274.6,76.02v7.71a3.444,3.444,0,0,1-1.26,2.111l-.009.007a2.311,2.311,0,0,1-1.645.471,2.609,2.609,0,0,1-1.842-1.238c-.02-.031-.04-.061-.059-.093s-.026-.042-.038-.063a3.789,3.789,0,0,1-.438-1.2V76.02Z" transform="translate(14.691 4.147)" fill="#fff"/>
          <path id="Trazado_1072014" data-name="Trazado 1072014" d="M269.31,83.332a2.646,2.646,0,0,0,5.291,0Z" transform="translate(14.691 4.546)" fill="#e8efff"/>
          <path id="Trazado_1072015" data-name="Trazado 1072015" d="M279.618,76.02v7.71a3.441,3.441,0,0,1-1.269,2.116.427.427,0,0,1-.057.04,2.28,2.28,0,0,1-1.589.433,2.609,2.609,0,0,1-1.84-1.235l-.006-.008c-.014-.022-.028-.043-.041-.065s-.033-.054-.049-.081a3.8,3.8,0,0,1-.44-1.2V76.02Z" transform="translate(14.965 4.147)" fill="#ff6a9a"/>
          <path id="Trazado_1072016" data-name="Trazado 1072016" d="M274.327,83.332a2.646,2.646,0,0,0,5.291,0Z" transform="translate(14.965 4.546)" fill="#f74887"/>
          <path id="Trazado_1072017" data-name="Trazado 1072017" d="M284.635,76.02v7.71a3.443,3.443,0,0,1-1.259,2.11l-.011.008a2.307,2.307,0,0,1-1.644.471,2.609,2.609,0,0,1-1.84-1.235l-.006-.008c-.014-.022-.028-.043-.041-.065s-.033-.054-.049-.081a3.773,3.773,0,0,1-.44-1.2V76.02Z" transform="translate(15.238 4.147)" fill="#fff"/>
          <path id="Trazado_1072018" data-name="Trazado 1072018" d="M279.344,83.332a2.646,2.646,0,0,0,5.291,0Z" transform="translate(15.238 4.546)" fill="#e8efff"/>
          <path id="Trazado_1072019" data-name="Trazado 1072019" d="M289.652,76.02v7.71a3.444,3.444,0,0,1-1.26,2.111l-.009.007a2.311,2.311,0,0,1-1.645.471,2.611,2.611,0,0,1-1.84-1.235l-.006-.008L284.846,85c-.015-.022-.028-.045-.042-.067l-.006-.011a3.839,3.839,0,0,1-.438-1.2V76.02Z" transform="translate(15.512 4.147)" fill="#ff6a9a"/>
          <path id="Trazado_1072020" data-name="Trazado 1072020" d="M284.361,83.332a2.646,2.646,0,0,0,5.291,0Z" transform="translate(15.512 4.546)" fill="#f74887"/>
          <path id="Trazado_1072021" data-name="Trazado 1072021" d="M294.669,76.02v7.71a3.443,3.443,0,0,1-1.259,2.11l-.011.008a2.307,2.307,0,0,1-1.644.471,2.607,2.607,0,0,1-1.84-1.235l-.006-.008c-.014-.022-.028-.043-.041-.065s-.033-.054-.049-.081a3.8,3.8,0,0,1-.44-1.2V76.02Z" transform="translate(15.786 4.147)" fill="#fff"/>
          <path id="Trazado_1072022" data-name="Trazado 1072022" d="M289.378,83.332a2.646,2.646,0,0,0,5.291,0Z" transform="translate(15.786 4.546)" fill="#e8efff"/>
          <path id="Trazado_1072023" data-name="Trazado 1072023" d="M299.687,76.02v7.71a3.45,3.45,0,0,1-1.261,2.111l-.009.007a2.311,2.311,0,0,1-1.645.471,2.609,2.609,0,0,1-1.839-1.235l-.007-.008c-.015-.024-.031-.049-.044-.072s-.028-.045-.042-.067l-.006-.011a3.81,3.81,0,0,1-.437-1.2V76.02Z" transform="translate(16.059 4.147)" fill="#ff6a9a"/>
          <path id="Trazado_1072024" data-name="Trazado 1072024" d="M294.4,83.332a2.646,2.646,0,0,0,5.291,0Z" transform="translate(16.059 4.546)" fill="#f74887"/>
          <path id="Trazado_1072025" data-name="Trazado 1072025" d="M224.532,2.755v8.023a6.64,6.64,0,0,0,6.639,6.639H275.3a6.64,6.64,0,0,0,6.639-6.639V2.755Z" transform="translate(12.248 0.15)" fill="#ff6993"/>
          <rect id="Rectángulo_480086" data-name="Rectángulo 480086" width="63.648" height="2.905" transform="translate(233.659)" fill="#512691"/>
          <rect id="Rectángulo_480087" data-name="Rectángulo 480087" width="105.299" height="3.112" transform="translate(212.832 78.611)" fill="#512691"/>
          <rect id="Rectángulo_480088" data-name="Rectángulo 480088" width="10.501" height="16.772" transform="translate(218.924 29.263)" fill="#fff"/>
          <rect id="Rectángulo_480089" data-name="Rectángulo 480089" width="9.219" height="15.489" transform="translate(219.565 29.904)" fill="#22c2f0"/>
          <rect id="Rectángulo_480090" data-name="Rectángulo 480090" width="10.5" height="0.641" transform="translate(218.924 32.67)" fill="#fff"/>
          <rect id="Rectángulo_480091" data-name="Rectángulo 480091" width="12.439" height="1.408" transform="translate(217.954 45.331)" fill="#fff"/>
          <rect id="Rectángulo_480092" data-name="Rectángulo 480092" width="10.501" height="16.772" transform="translate(239.578 29.263)" fill="#fff"/>
          <rect id="Rectángulo_480093" data-name="Rectángulo 480093" width="9.219" height="15.489" transform="translate(240.219 29.904)" fill="#22c2f0"/>
          <rect id="Rectángulo_480094" data-name="Rectángulo 480094" width="10.5" height="0.641" transform="translate(239.578 32.67)" fill="#fff"/>
          <rect id="Rectángulo_480095" data-name="Rectángulo 480095" width="12.439" height="1.408" transform="translate(238.609 45.331)" fill="#fff"/>
          <rect id="Rectángulo_480096" data-name="Rectángulo 480096" width="10.501" height="16.772" transform="translate(260.231 29.263)" fill="#fff"/>
          <rect id="Rectángulo_480097" data-name="Rectángulo 480097" width="9.219" height="15.489" transform="translate(260.872 29.904)" fill="#22c2f0"/>
          <rect id="Rectángulo_480098" data-name="Rectángulo 480098" width="10.5" height="0.641" transform="translate(260.232 32.67)" fill="#fff"/>
          <rect id="Rectángulo_480099" data-name="Rectángulo 480099" width="12.439" height="1.408" transform="translate(259.263 45.331)" fill="#fff"/>
          <rect id="Rectángulo_480100" data-name="Rectángulo 480100" width="10.501" height="16.772" transform="translate(280.886 29.263)" fill="#fff"/>
          <rect id="Rectángulo_480101" data-name="Rectángulo 480101" width="9.219" height="15.489" transform="translate(281.527 29.904)" fill="#22c2f0"/>
          <rect id="Rectángulo_480102" data-name="Rectángulo 480102" width="10.5" height="0.641" transform="translate(280.886 32.67)" fill="#fff"/>
          <rect id="Rectángulo_480103" data-name="Rectángulo 480103" width="12.439" height="1.408" transform="translate(279.917 45.331)" fill="#fff"/>
          <rect id="Rectángulo_480104" data-name="Rectángulo 480104" width="10.501" height="16.772" transform="translate(301.539 29.263)" fill="#fff"/>
          <rect id="Rectángulo_480105" data-name="Rectángulo 480105" width="9.219" height="15.489" transform="translate(302.181 29.904)" fill="#22c2f0"/>
          <rect id="Rectángulo_480106" data-name="Rectángulo 480106" width="10.5" height="0.641" transform="translate(301.54 32.67)" fill="#fff"/>
          <rect id="Rectángulo_480107" data-name="Rectángulo 480107" width="12.439" height="1.408" transform="translate(300.571 45.331)" fill="#fff"/>
          <rect id="Rectángulo_480108" data-name="Rectángulo 480108" width="10.501" height="16.772" transform="translate(218.924 54.98)" fill="#fff"/>
          <rect id="Rectángulo_480109" data-name="Rectángulo 480109" width="9.219" height="15.489" transform="translate(219.565 55.621)" fill="#22c2f0"/>
          <rect id="Rectángulo_480110" data-name="Rectángulo 480110" width="10.5" height="0.641" transform="translate(218.924 58.388)" fill="#fff"/>
          <rect id="Rectángulo_480111" data-name="Rectángulo 480111" width="12.439" height="1.408" transform="translate(217.954 71.048)" fill="#fff"/>
          <rect id="Rectángulo_480112" data-name="Rectángulo 480112" width="10.501" height="16.772" transform="translate(239.578 54.981)" fill="#fff"/>
          <rect id="Rectángulo_480113" data-name="Rectángulo 480113" width="9.219" height="15.489" transform="translate(240.219 55.621)" fill="#22c2f0"/>
          <rect id="Rectángulo_480114" data-name="Rectángulo 480114" width="10.5" height="0.641" transform="translate(239.578 58.388)" fill="#fff"/>
          <rect id="Rectángulo_480115" data-name="Rectángulo 480115" width="12.439" height="1.408" transform="translate(238.609 71.048)" fill="#fff"/>
          <rect id="Rectángulo_480116" data-name="Rectángulo 480116" width="10.501" height="16.772" transform="translate(260.231 54.98)" fill="#fff"/>
          <rect id="Rectángulo_480117" data-name="Rectángulo 480117" width="9.219" height="15.489" transform="translate(260.872 55.621)" fill="#22c2f0"/>
          <rect id="Rectángulo_480118" data-name="Rectángulo 480118" width="10.5" height="0.641" transform="translate(260.232 58.388)" fill="#fff"/>
          <rect id="Rectángulo_480119" data-name="Rectángulo 480119" width="12.439" height="1.408" transform="translate(259.263 71.048)" fill="#fff"/>
          <rect id="Rectángulo_480120" data-name="Rectángulo 480120" width="10.501" height="16.772" transform="translate(280.886 54.981)" fill="#fff"/>
          <rect id="Rectángulo_480121" data-name="Rectángulo 480121" width="9.219" height="15.489" transform="translate(281.527 55.621)" fill="#22c2f0"/>
          <rect id="Rectángulo_480122" data-name="Rectángulo 480122" width="10.5" height="0.641" transform="translate(280.886 58.388)" fill="#fff"/>
          <rect id="Rectángulo_480123" data-name="Rectángulo 480123" width="12.439" height="1.408" transform="translate(279.917 71.048)" fill="#fff"/>
          <rect id="Rectángulo_480124" data-name="Rectángulo 480124" width="10.501" height="16.772" transform="translate(301.539 54.981)" fill="#fff"/>
          <rect id="Rectángulo_480125" data-name="Rectángulo 480125" width="9.219" height="15.489" transform="translate(302.181 55.621)" fill="#22c2f0"/>
          <rect id="Rectángulo_480126" data-name="Rectángulo 480126" width="10.5" height="0.641" transform="translate(301.54 58.388)" fill="#fff"/>
          <rect id="Rectángulo_480127" data-name="Rectángulo 480127" width="12.439" height="1.408" transform="translate(300.571 71.048)" fill="#fff"/>
          <path id="Trazado_1072026" data-name="Trazado 1072026" d="M238.361,5.418v7.939h-1.837V10.1h-3.607v3.254H231.08V5.418h1.837v3.13h3.607V5.418Z" transform="translate(12.605 0.296)" fill="#fff"/>
          <path id="Trazado_1072027" data-name="Trazado 1072027" d="M242.486,12.966a3.96,3.96,0,0,1-1.553-1.468,4.011,4.011,0,0,1-.561-2.1,4.006,4.006,0,0,1,.561-2.1,3.963,3.963,0,0,1,1.553-1.469,4.917,4.917,0,0,1,4.451,0,4.048,4.048,0,0,1,0,7.145,4.908,4.908,0,0,1-4.451,0m3.5-1.355a2.315,2.315,0,0,0,.89-.9,2.835,2.835,0,0,0,0-2.631,2.322,2.322,0,0,0-.89-.9,2.661,2.661,0,0,0-2.54,0,2.329,2.329,0,0,0-.89.9,2.843,2.843,0,0,0,0,2.631,2.322,2.322,0,0,0,.89.9,2.661,2.661,0,0,0,2.54,0" transform="translate(13.112 0.289)" fill="#fff"/>
          <path id="Trazado_1072028" data-name="Trazado 1072028" d="M252.58,6.915h-2.54v-1.5h6.918v1.5h-2.54v6.441H252.58Z" transform="translate(13.64 0.296)" fill="#fff"/>
          <path id="Trazado_1072029" data-name="Trazado 1072029" d="M264.757,11.882v1.474h-6.146V5.418h6V6.892h-4.173V8.616h3.686v1.429h-3.686v1.837Z" transform="translate(14.107 0.296)" fill="#fff"/>
          <path id="Trazado_1072030" data-name="Trazado 1072030" d="M266.9,5.418h1.837v6.441h3.981v1.5H266.9Z" transform="translate(14.56 0.296)" fill="#fff"/>
          <rect id="Rectángulo_480128" data-name="Rectángulo 480128" width="40.679" height="1.8" transform="translate(245.142 122.595)" fill="#fff"/>
          <rect id="Rectángulo_480129" data-name="Rectángulo 480129" width="40.679" height="0.33" transform="translate(245.142 124.065)" fill="#aae5f7"/>
          <rect id="Rectángulo_480130" data-name="Rectángulo 480130" width="45.894" height="1.8" transform="translate(242.535 124.394)" fill="#fff"/>
          <rect id="Rectángulo_480131" data-name="Rectángulo 480131" width="45.894" height="0.345" transform="translate(242.535 125.85)" fill="#aae5f7"/>
          <rect id="Rectángulo_480132" data-name="Rectángulo 480132" width="50.503" height="1.799" transform="translate(240.231 126.195)" fill="#fff"/>
          <rect id="Rectángulo_480133" data-name="Rectángulo 480133" width="50.503" height="0.381" transform="translate(240.231 127.612)" fill="#aae5f7"/>
          <path id="Trazado_1072031" data-name="Trazado 1072031" d="M353.164,201.863H17.09a.932.932,0,0,0,0,1.863H353.164a.932.932,0,1,0,0-1.863" transform="translate(0.881 11.012)" fill="#573499"/>
          <path id="Trazado_1072032" data-name="Trazado 1072032" d="M181.226,215.222H115.283a.932.932,0,1,0,0,1.863h65.943a.932.932,0,1,0,0-1.863" transform="translate(6.238 11.74)" fill="#573499"/>
          <path id="Trazado_1072033" data-name="Trazado 1072033" d="M200.02,215.222H188.408a.932.932,0,0,0,0,1.863H200.02a.932.932,0,1,0,0-1.863" transform="translate(10.227 11.74)" fill="#573499"/>
          <path id="Trazado_1072034" data-name="Trazado 1072034" d="M115.6,137.33c3.018,4.07,5.88,7.975,8.606,11.676,11.574,15.708,20.738,27.734,29.323,32.907,3.5,2.112,6.908,3.082,10.344,2.7l8.121-21.322s-23.344-45.863-41.683-56c-12.24-6.766-25.861,15.009-14.711,30.039" transform="translate(6.081 5.783)" fill="#22c2f0"/>
          <path id="Trazado_1072035" data-name="Trazado 1072035" d="M145.571,162l31.848-57.7a36.446,36.446,0,0,1,12.773,5.6c.023.573-15,71.4-28.158,74.788Z" transform="translate(7.941 5.689)" fill="#22c2f0"/>
          <path id="Trazado_1072036" data-name="Trazado 1072036" d="M123.547,147.97c11.574,15.708,20.738,27.734,29.323,32.907-7.332-6.649-14.358-18.152-14.883-28.438-.538-10.466-7.406-27.441-7.406-27.441Z" transform="translate(6.739 6.819)" fill="#0da5d3"/>
          <path id="Trazado_1072037" data-name="Trazado 1072037" d="M55.816,135.777a118.069,118.069,0,0,1,4.007,18.308q.4,3.2.732,6.418h70.582c1.911-24.732,4.871-47.338-1.655-52.7-2.05-1.685-5.542-2.512-11.095-3.95a103.207,103.207,0,0,0-17.418-2.531c-5.149-.36-10.343.947-15.506.675a79.844,79.844,0,0,0-15.512,2.468c-7.565,1.894-15.177,4.916-16.053,9.158-1.748,8.558-.152,14.691,1.918,22.157" transform="translate(2.899 5.524)" fill="#fff"/>
          <path id="Trazado_1072038" data-name="Trazado 1072038" d="M78.682,105.716s9.642,10.663,19.723,10.078,10.965-11.562,10.965-11.562-.833-.293-1.82-.7a12.076,12.076,0,0,1-3.059-1.608c-.931-.908-1.65-4.661-2.118-7.871-.388-2.663-.6-4.949-.6-4.949l-16.957-.973s0,.889-.027,2.149v.005c-.033,1.611-.108,3.816-.265,5.5-.281,2.957-.769,6.2-1.628,7.339-1.172,1.569-4.213,2.6-4.213,2.6" transform="translate(4.292 4.807)" fill="#ffcda1"/>
          <path id="Trazado_1072039" data-name="Trazado 1072039" d="M103.47,100.978A44.625,44.625,0,0,1,101.9,94c-.243-2.679-.6-4.949-.6-4.949L87.383,90.995c3.492,8.217,10.541,13.415,16.087,9.983" transform="translate(4.767 4.858)" fill="#e69f75"/>
          <path id="Trazado_1072040" data-name="Trazado 1072040" d="M92.48,119.634l2.525.291,2.525.291c3.386,12.97,4.414,44.327,2.648,58.713l-8.987,10.924L83.6,176.88c6.143-22.7,9.162-45.171,8.878-57.246" transform="translate(4.56 6.526)" fill="#512691"/>
          <path id="Trazado_1072041" data-name="Trazado 1072041" d="M99.135,115.93l-1.976,4.916H92.124L90.1,116.374l4.2-2.425Z" transform="translate(4.915 6.216)" fill="#512691"/>
          <path id="Trazado_1072042" data-name="Trazado 1072042" d="M106.569,102.134c3.7-.356,11.441,1.364,11.826,1.461L105.706,121.5l-10.249-6.072-8.55,4.832L69.981,104.334c3.7-1.22,9.975-2.548,13.629-2.361,0,0,3.994,12.252,12.817,12.252s10.142-12.09,10.142-12.09" transform="translate(3.817 5.562)" fill="#22c2f0"/>
          <path id="Trazado_1072043" data-name="Trazado 1072043" d="M55.486,136.337a122.656,122.656,0,0,1,3.91,18.5l.161,1.3c.061.5.12.994.178,1.493.389,3.293.735,6.585,1.013,9.872a181.021,181.021,0,0,1,.591,24.307,125.153,125.153,0,0,1-1.69,15.464h71.695c-.274-1.8-.5-3.662-.68-5.578-.059-.616-.115-1.237-.163-1.867a216.5,216.5,0,0,1-.095-28.044c.007-.146.016-.276.025-.4.016-.258.031-.517.049-.778.008-.176.016-.273.016-.273q.157-2.692.391-5.371c.054-.614.11-1.224.166-1.836v0q.323-3.379.727-6.7c2.747-23.017,7.494-43.288-.693-49.633-1.386-1.077-6.928-1.964-11.086-3.076-.133-.036-.268-.072-.4-.105-.964-.248-1.933-.455-2.877-.6h-.007a.214.214,0,0,0-.025-.005.183.183,0,0,0-.041-.005h-.005a18.646,18.646,0,0,0-2.867-.24l0,.005c-2.527,5.025-5.344,11.695-7.933,18.206-1.68,4.237-3.263,8.406-4.6,12.011v0c-1.345,3.62-2.439,6.671-3.146,8.643-.051.138-.1.273-.14.4-.1.3-.2.573-.287.811l0,.009-.095.264c-.166.473-.271.777-.309.888a.119.119,0,0,1-.008.023l-.007.02-3.989-7.23L80.02,112.835l-5.253-9.518-.046-.084,0-.005a31.455,31.455,0,0,0-5.534,1.03,48.654,48.654,0,0,0-9.38,3.486c-3,1.544-5.263,3.347-6.012,5.3-3.132,8.153-.383,15.833,1.694,23.3" transform="translate(2.857 5.605)" fill="#22c2f0"/>
          <path id="Trazado_1072044" data-name="Trazado 1072044" d="M60.967,189.644a124.952,124.952,0,0,1-1.69,15.464h11.4c-.867-3.861-1.033-7.932,1.721-8.848,3.346-1.181,19.876.723,30.31,1.064,12.048.388,14.349-.018,8.634-10.5h0c-1.246-2.568-6.311-10.452-6.984-11.3C97.461,172.871,78.9,165.6,72.4,163.465c-5.388-2.493-.774-21.257-1-21.034-1.283,1.213-11.2,10.581-12.216,11.541a209.728,209.728,0,0,1,1.782,35.672" transform="translate(3.229 7.77)" fill="#0da5d3"/>
          <path id="Trazado_1072045" data-name="Trazado 1072045" d="M120.608,178.549c-1.154,2.061-6.986,3.167-7.55,3.77-1.781,1.913,2.616,2.468,4.532,3.048,1.438.438,11.03,3.159,13.192,4.071,1.524.642,2.206,2.945-2.046,2.4-1.506-.194-10.058-2.887-10.375-2.337s11.129,3.91,12.321,4.346c2.812,1.029,2.63,3.389.142,3a109.651,109.651,0,0,1-13.4-3.791c.3,1.24,11.839,4.75,12.223,4.916,1.555.676,1.841,3.157-2.077,2.5-1.826-.306-11.787-3.522-11.787-3.522.553,1.544,11.357,4.319,11.288,5.725-.156,3.2-14.763-2.412-15.84-3.046-9.094-5.354-7.546-8.52-16.98-13.913l7.85-6.521c4.494-.534,20.562-4.319,18.5-.641" transform="translate(5.142 9.653)" fill="#ffcda1"/>
          <path id="Trazado_1072046" data-name="Trazado 1072046" d="M68.315,104.27l28.107,51.091,22.709-51.634c-2.14-.575-4.153-.833-6.181-1.2-7.108,14.134-16.578,41.526-16.578,41.526L73.85,103.241a31.4,31.4,0,0,0-5.535,1.029" transform="translate(3.727 5.593)" fill="#6df"/>
          <path id="Trazado_1072047" data-name="Trazado 1072047" d="M69.085,62.815a23.3,23.3,0,1,1,19.7,26.039,23.089,23.089,0,0,1-19.7-26.039" transform="translate(3.755 2.364)" fill="#612b03"/>
          <path id="Trazado_1072048" data-name="Trazado 1072048" d="M79.347,50.531c6.366-8.935,24.612-9.432,31.926-3.919,5.493,4.142,6.242,7.513,7.228,11.324,1.674,6.476,1.11,20.655-.311,27.607-1.379,6.745-9.3,13.306-14.146,14.568-7.586,1.971-19.447-7.975-21.974-11.676s-4.24-14.9-4.927-19.732c-.643-4.531-1.491-12.987,2.2-18.172" transform="translate(4.177 2.347)" fill="#ffcda1"/>
          <path id="Trazado_1072049" data-name="Trazado 1072049" d="M119.194,67.945c-.359-3.814-.079-7.844-2.323-10.612a15.045,15.045,0,0,0-.159,3.831c-2.186-1.887-.486-9-9.6-10.98-4.225-.917-10.474,5.9-19.168,3.5-3.974-1.1-6.774-5.359-5.124-11.643C83.733,38.582,94,31.907,106.1,34.116a8.11,8.11,0,0,0-2.8,1.186c1.463-.983,15.617-.79,20.176,12.723l-2.1-.812c.546.678,2.908,5.351,2.5,8.84L122.031,53.9s2.182,6.126-2.837,14.049" transform="translate(4.492 1.837)" fill="#612b03"/>
          <path id="Trazado_1072050" data-name="Trazado 1072050" d="M102.762,67.184a10.014,10.014,0,0,0,1.761,7.061c2.423,3.286,2.578,5.755-2.029,7.145,0,0,4.3-2.271,1.683-5.724-1.038-1.368-3.792-5.061-1.415-8.482" transform="translate(5.554 3.665)" fill="#e69f75"/>
          <path id="Trazado_1072051" data-name="Trazado 1072051" d="M85.871,42.038s-4.858-1.889-11.855,1.834c-5.424,2.886-9.086,14.333-6.1,19.3.149.247.922-2.866,2.247-3.272,0,0-1.716,3.559-1.229,6.353a30.531,30.531,0,0,0,3.352,8.58c-.044-2.126,1.881-7.807,4.276-4.356,1.161,4.913,5.868,2.163,5.868,2.163,2.039,1.634-1.141-18.564,8.819-19.71,2.036-.235-5.381-10.89-5.381-10.89" transform="translate(3.647 2.267)" fill="#612b03"/>
          <path id="Trazado_1072052" data-name="Trazado 1072052" d="M83.771,76.181c-.174-2.321-1.2-7.207-4.508-8.962-2.926-1.551-7.677-.251-6.509,5.668,1.042,5.274,4.2,8.338,7.218,9.474,3.619,1.36,4.191-.934,3.8-6.181" transform="translate(3.959 3.634)" fill="#ffcda1"/>
          <path id="Trazado_1072053" data-name="Trazado 1072053" d="M78.54,69.612c2.958,1.605,2.943,5.247,2.847,6.472,0,.045.011.088.011.134a1.357,1.357,0,0,1-1.341,1.325.719.719,0,0,1-.425-.141c-1.292-.928-1.047-1.533-.535-1.878a2.5,2.5,0,0,0,1.085-2.454,3.685,3.685,0,0,0-1.79-2.841,3.964,3.964,0,0,0-4.7.342s1.264-2.9,4.849-.958" transform="translate(4.02 3.761)" fill="#e69f75"/>
          <path id="Trazado_1072054" data-name="Trazado 1072054" d="M106.944,61.348c.924-.556,6.816-1.186,10.147,1.489.494.4-.233.656-1.031.4a18.479,18.479,0,0,0-9.429.084c-.605.185-.573-1.439.313-1.972" transform="translate(5.794 3.32)" fill="#612b03"/>
          <path id="Trazado_1072055" data-name="Trazado 1072055" d="M97.118,61.446c-1.173-.521-8.224-.4-11.768,3.247-.525.54.371.74,1.276.32,3.727-1.735,9.01-1.656,11.151-1.283.741.129.465-1.784-.659-2.283" transform="translate(4.647 3.34)" fill="#612b03"/>
          <path id="Trazado_1072056" data-name="Trazado 1072056" d="M97.193,69.936c-.313,2.989-8.347,3.884-9.663,3.108-.072-.044-.143-.088-.21-.132-.005,0-.006-.005-.006-.005A13.71,13.71,0,0,1,85.976,70.5a15.133,15.133,0,0,1,2.089-2.184c.011,0,.016-.013.032-.02a9.985,9.985,0,0,1,1.976-.981,6,6,0,0,1,5.15.217A5.237,5.237,0,0,1,97.18,69.49a1.743,1.743,0,0,1,.014.446" transform="translate(4.69 3.646)" fill="#401f05"/>
          <path id="Trazado_1072057" data-name="Trazado 1072057" d="M97.466,70.632c.028,2.118-2.715,3.686-4.767,4.042a5.987,5.987,0,0,1-1.549.057A5.735,5.735,0,0,1,88.723,74a6.863,6.863,0,0,1-1.016-.681,2.316,2.316,0,0,1-.387-.4.007.007,0,0,1-.006-.005A13.777,13.777,0,0,1,85.975,70.5a15.1,15.1,0,0,1,2.09-2.184c.011,0,.016-.013.032-.019a9.965,9.965,0,0,1,1.976-.982,6,6,0,0,1,5.15.217A5.246,5.246,0,0,1,97.18,69.49a2.585,2.585,0,0,1,.287,1.142" transform="translate(4.69 3.646)" fill="#fff"/>
          <path id="Trazado_1072058" data-name="Trazado 1072058" d="M92.085,66.444a4.03,4.03,0,1,1-3.133,4.786,4.045,4.045,0,0,1,3.133-4.786" transform="translate(4.847 3.62)" fill="#ab682c"/>
          <path id="Trazado_1072059" data-name="Trazado 1072059" d="M95.112,69.342a2.507,2.507,0,1,1-3.2-1.511,2.493,2.493,0,0,1,3.2,1.511" transform="translate(4.923 3.692)" fill="#2e130c"/>
          <path id="Trazado_1072060" data-name="Trazado 1072060" d="M94.764,68.361a.627.627,0,1,1-.8-.378.623.623,0,0,1,.8.378" transform="translate(5.103 3.707)" fill="#fff"/>
          <path id="Trazado_1072061" data-name="Trazado 1072061" d="M95.329,70.317a.35.35,0,1,1-.446-.211.348.348,0,0,1,.446.211" transform="translate(5.163 3.823)" fill="#fff"/>
          <path id="Trazado_1072062" data-name="Trazado 1072062" d="M97.265,69.539a5.237,5.237,0,0,0-1.956-1.957,6,6,0,0,0-5.15-.217,9.965,9.965,0,0,0-1.976.982c-.016.006-.021.019-.032.019a15.1,15.1,0,0,0-2.09,2.184A13.777,13.777,0,0,0,87.4,72.956a3.749,3.749,0,0,1-.71-.61,6.724,6.724,0,0,1-.554-.8c-.274-.472-.334-.7-.506-.719-.091-.013-1.229-.431-1.229-.431a2.805,2.805,0,0,0,1.374-.857c2.609-4.225,8.578-4.789,10.907-1.295a3.157,3.157,0,0,1,.582,1.3" transform="translate(4.604 3.598)" fill="#401f05"/>
          <path id="Trazado_1072063" data-name="Trazado 1072063" d="M106.459,69.817c.66,2.846,8.518,2.747,9.694,1.84.064-.051.129-.1.187-.152a.005.005,0,0,0,.005-.005,13.334,13.334,0,0,0,1-2.483,14.714,14.714,0,0,0-2.278-1.856c-.011,0-.017-.011-.033-.015a9.764,9.764,0,0,0-2.024-.711,5.838,5.838,0,0,0-4.944.827,5.1,5.1,0,0,0-1.652,2.123,1.641,1.641,0,0,0,.04.432" transform="translate(5.805 3.613)" fill="#401f05"/>
          <path id="Trazado_1072064" data-name="Trazado 1072064" d="M106.287,70.521c.227,2.046,3.061,3.231,5.083,3.329a5.855,5.855,0,0,0,1.5-.131,5.574,5.574,0,0,0,2.255-1,6.608,6.608,0,0,0,.9-.779,2.2,2.2,0,0,0,.324-.438c.006,0,.005-.005.005-.005a13.307,13.307,0,0,0,1-2.482,14.681,14.681,0,0,0-2.277-1.856c-.012,0-.017-.011-.034-.016a9.735,9.735,0,0,0-2.024-.71,5.839,5.839,0,0,0-4.944.827,5.1,5.1,0,0,0-1.652,2.123,2.518,2.518,0,0,0-.139,1.136" transform="translate(5.797 3.613)" fill="#fff"/>
          <path id="Trazado_1072065" data-name="Trazado 1072065" d="M108.813,69.268a3.946,3.946,0,1,1,3.6,4.24,3.933,3.933,0,0,1-3.6-4.24" transform="translate(5.935 3.583)" fill="#ab682c"/>
          <path id="Trazado_1072066" data-name="Trazado 1072066" d="M110.361,68.883a2.437,2.437,0,1,0,2.9-1.841,2.423,2.423,0,0,0-2.9,1.841" transform="translate(6.017 3.654)" fill="#2e130c"/>
          <path id="Trazado_1072067" data-name="Trazado 1072067" d="M113.209,67.449a.61.61,0,1,0,.726-.46.606.606,0,0,0-.726.46" transform="translate(6.175 3.653)" fill="#fff"/>
          <path id="Trazado_1072068" data-name="Trazado 1072068" d="M114.559,68.815a.34.34,0,1,0,.4-.257.338.338,0,0,0-.4.257" transform="translate(6.249 3.739)" fill="#fff"/>
          <path id="Trazado_1072069" data-name="Trazado 1072069" d="M106.419,69.436a5.1,5.1,0,0,1,1.652-2.123,5.839,5.839,0,0,1,4.944-.827,9.735,9.735,0,0,1,2.024.71c.017.005.022.016.033.016a14.714,14.714,0,0,1,2.278,1.856,13.306,13.306,0,0,1-1,2.482,3.643,3.643,0,0,0,.613-.673,6.488,6.488,0,0,0,.438-.842c.209-.488.239-.711.4-.754.086-.023,1.134-.563,1.134-.563a2.728,2.728,0,0,1-1.428-.662c-3.023-3.764-8.849-3.593-10.678.057a3.063,3.063,0,0,0-.406,1.322" transform="translate(5.805 3.562)" fill="#401f05"/>
          <path id="Trazado_1072070" data-name="Trazado 1072070" d="M109.407,83.121a8.7,8.7,0,0,1-.119,1.106,8.824,8.824,0,0,1-2.062,4.489v.008a6.676,6.676,0,0,1-5.275,2.013A6.748,6.748,0,0,1,97.027,88.8c0-.009-.009-.009-.008-.018a8.583,8.583,0,0,1-2.128-4.847,8.486,8.486,0,0,1-.074-1.11,32.336,32.336,0,0,0,14.59.3" transform="translate(5.172 4.518)" fill="#801d29"/>
          <path id="Trazado_1072071" data-name="Trazado 1072071" d="M107.111,88.466v.008a6.677,6.677,0,0,1-5.276,2.013,6.748,6.748,0,0,1-4.923-1.938c0-.008-.008-.009-.008-.018s1.865-2.009,5.215-.6a5.4,5.4,0,0,1,4.992.531" transform="translate(5.286 4.769)" fill="#ff8582"/>
          <path id="Trazado_1072072" data-name="Trazado 1072072" d="M109.407,83.121a8.7,8.7,0,0,1-.119,1.106,26.172,26.172,0,0,1-14.4-.292,8.486,8.486,0,0,1-.074-1.11,33.119,33.119,0,0,0,14.59.3" transform="translate(5.172 4.518)" fill="#fff"/>
          <path id="Trazado_1072073" data-name="Trazado 1072073" d="M82.894,56.24l5.721-3.59A15.119,15.119,0,0,0,85.58,63.136s-3.494-3.757-2.686-6.9" transform="translate(4.515 2.872)" fill="#612b03"/>
          <path id="Trazado_1072074" data-name="Trazado 1072074" d="M74.067,118.923c.489,18.338-22.712,55.786-22.712,55.786l-18.978,6.68c-8.717-6.932-2.156-34.1,13.543-60.756,12.264-20.827,27.82-13.949,28.147-1.709" transform="translate(1.554 5.853)" fill="#22c2f0"/>
          <path id="Trazado_1072075" data-name="Trazado 1072075" d="M43.942,158.242l64.989,20.972c.765,4.095-6.034,15.869-6.034,15.869s-64.02-7.611-71.257-17.05Z" transform="translate(1.726 8.632)" fill="#22c2f0"/>
          <path id="Trazado_1072076" data-name="Trazado 1072076" d="M203,83.082c-4.46.811-16.68,11.29-20.206,12.48-2.988,1.007-3.86-6.829-6.073-4.852s.233,13.1.233,13.1l11.439,4.483C204.967,105.965,207.46,82.272,203,83.082" transform="translate(9.59 4.531)" fill="#ffcda1"/>
          <path id="Trazado_1072077" data-name="Trazado 1072077" d="M203.123,77.778l-15-5.07a2.156,2.156,0,0,0-2.733,1.352l-11.335,31.169a2.155,2.155,0,0,0,1.352,2.732l15,5.071a2.156,2.156,0,0,0,2.733-1.352l11.335-31.169a2.156,2.156,0,0,0-1.352-2.733" transform="translate(9.488 3.96)" fill="#552996"/>
          <path id="Trazado_1072078" data-name="Trazado 1072078" d="M175.975,105.843l11.3-31.167.05-.07,15.009,5.072-11.3,31.167-.05.071-15.009-5.073" transform="translate(9.599 4.07)" fill="#fff"/>
          <path id="Trazado_1072079" data-name="Trazado 1072079" d="M177.08,86.324c2.15-2.946,6.308-4.872,7.654-2.974s-4.3,4.643-4.3,4.643L176.4,97.671s-1.472-8.4.678-11.347" transform="translate(9.596 4.505)" fill="#ffcda1"/>
          <path id="Trazado_1072080" data-name="Trazado 1072080" d="M198.033,89.04c-.627,4-.108,7.406,1.161,7.6s2.8-2.883,3.43-6.885.108-7.405-1.16-7.6-2.805,2.884-3.432,6.885" transform="translate(10.788 4.481)" fill="#ffcda1"/>
          <path id="Trazado_1072081" data-name="Trazado 1072081" d="M190.311,87.965l-.065,2.862a.451.451,0,0,0,.3.437l2.7.947a.451.451,0,0,1-.02.857l-2.742.821a.45.45,0,0,0-.322.422l-.065,2.862a.452.452,0,0,1-.823.247l-1.629-2.355a.451.451,0,0,0-.5-.175l-2.742.821a.451.451,0,0,1-.488-.706l1.735-2.277a.451.451,0,0,0,.013-.53l-1.629-2.354a.451.451,0,0,1,.52-.682l2.7.947a.451.451,0,0,0,.508-.152l1.735-2.277a.451.451,0,0,1,.81.284" transform="translate(10.028 4.773)" fill="#ffb70f"/>
          <path id="Trazado_1072082" data-name="Trazado 1072082" d="M73.407,204.088l24.983.288,59.868.489,14.995-45.608-59.865-.489-13.92,42.111-26.033-.3Z" transform="translate(4.004 8.661)" fill="#332073"/>
          <path id="Trazado_1072083" data-name="Trazado 1072083" d="M98.092,204.363l58.819.481,15-45.608-6.98-.058c-11.757,43.7-50.054,36.9-66.834,45.185" transform="translate(5.351 8.683)" fill="#241459"/>
          <path id="Trazado_1072084" data-name="Trazado 1072084" d="M308.16,136.217H285.1V114.911a3.54,3.54,0,0,1,3.54-3.54h15.974a3.541,3.541,0,0,1,3.541,3.54Zm-21.658-1.4h20.261V116.308a3.54,3.54,0,0,0-3.54-3.54H290.041a3.54,3.54,0,0,0-3.54,3.54Z" transform="translate(15.552 6.075)" fill="#484f66"/>
          <path id="Trazado_1072085" data-name="Trazado 1072085" d="M300.57,113.913h-9.082a1.747,1.747,0,1,1,0-3.494h9.082a1.747,1.747,0,0,1,0,3.494" transform="translate(15.805 6.023)" fill="#805fc2"/>
          <path id="Trazado_1072086" data-name="Trazado 1072086" d="M276.866,196.261a3.493,3.493,0,1,1,0,4.94,3.492,3.492,0,0,1,0-4.94" transform="translate(15.047 10.65)" fill="#484f66"/>
          <path id="Trazado_1072087" data-name="Trazado 1072087" d="M308.727,198.731a3.493,3.493,0,1,1,3.493,3.493,3.493,3.493,0,0,1-3.493-3.493" transform="translate(16.841 10.65)" fill="#484f66"/>
          <path id="Trazado_1072088" data-name="Trazado 1072088" d="M315.153,133.607H278.639a4.8,4.8,0,0,0-4.8,4.8v58.171a4.8,4.8,0,0,0,4.8,4.8h36.514a4.8,4.8,0,0,0,4.8-4.8V138.405a4.8,4.8,0,0,0-4.8-4.8" transform="translate(14.938 7.288)" fill="#805fc2"/>
          <path id="Trazado_1072089" data-name="Trazado 1072089" d="M315.142,133.607h-.217a4.794,4.794,0,0,1,.2,1.384v48.768a14.2,14.2,0,0,1-14.2,14.2H274.035a4.8,4.8,0,0,0,4.595,3.416h36.513a4.8,4.8,0,0,0,4.8-4.8V138.405a4.8,4.8,0,0,0-4.8-4.8" transform="translate(14.949 7.288)" fill="#e7f2f7"/>
          <path id="Trazado_1072090" data-name="Trazado 1072090" d="M287.752,133.614a42,42,0,0,1-13.91,12.6v-3.773a24.971,24.971,0,0,0,9.752-8.831h4.151Z" transform="translate(14.938 7.288)" fill="#fff"/>
          <path id="Trazado_1072091" data-name="Trazado 1072091" d="M318.247,142.808v3.955a42.683,42.683,0,0,1-13.156-13.156h3.955a34.567,34.567,0,0,0,9.2,9.2" transform="translate(16.643 7.288)" fill="#fff"/>
          <path id="Trazado_1072092" data-name="Trazado 1072092" d="M288.45,198.547l-.007.007h-4.15a31.907,31.907,0,0,0-10.452-9.46v-3.772c6.027,3.654,11.19,7.872,14.609,13.225" transform="translate(14.938 10.109)" fill="#fff"/>
          <path id="Trazado_1072093" data-name="Trazado 1072093" d="M303.713,198.547l.007.007h4.15a24.017,24.017,0,0,1,10.452-9.46v-3.772c-5.545,2.4-10.532,6.806-14.609,13.225" transform="translate(16.568 10.109)" fill="#fff"/>
          <path id="Trazado_1072094" data-name="Trazado 1072094" d="M310.472,151.783H283.924a2.794,2.794,0,1,1,0-5.588h26.548a2.794,2.794,0,1,1,0,5.588" transform="translate(15.336 7.975)" fill="#fff"/>
          <path id="Trazado_1072095" data-name="Trazado 1072095" d="M220.516,198.763a3.457,3.457,0,1,1,3.458,3.458,3.458,3.458,0,0,1-3.458-3.458" transform="translate(12.029 10.654)" fill="#484f66"/>
          <path id="Trazado_1072096" data-name="Trazado 1072096" d="M255.833,198.455a3.457,3.457,0,1,1,3.457,3.458,3.457,3.457,0,0,1-3.457-3.458" transform="translate(13.956 10.637)" fill="#484f66"/>
          <path id="Trazado_1072097" data-name="Trazado 1072097" d="M258.615,191H225.422V154.628a4.81,4.81,0,0,1,4.81-4.81h23.573a4.81,4.81,0,0,1,4.81,4.81ZM227.5,188.926H256.54V156.7a4.81,4.81,0,0,0-4.81-4.81H232.306a4.81,4.81,0,0,0-4.81,4.81Z" transform="translate(12.297 8.173)" fill="#484f66"/>
          <path id="Trazado_1072098" data-name="Trazado 1072098" d="M262.742,165.33H222.736a4.2,4.2,0,0,0-4.2,4.2v25.484a4.2,4.2,0,0,0,4.2,4.2h40.005a4.2,4.2,0,0,0,4.2-4.2V169.53a4.2,4.2,0,0,0-4.2-4.2" transform="translate(11.921 9.019)" fill="#ffb70f"/>
          <path id="Trazado_1072099" data-name="Trazado 1072099" d="M263.178,165.355a4.191,4.191,0,0,1,.536,2.05v15.277a14.4,14.4,0,0,1-14.4,14.4h-29.8a4.258,4.258,0,0,1-.467-.027,4.2,4.2,0,0,0,3.669,2.154h40a4.2,4.2,0,0,0,4.2-4.2V169.533a4.2,4.2,0,0,0-3.736-4.178" transform="translate(11.949 9.02)" fill="#f9a600"/>
          <path id="Trazado_1072100" data-name="Trazado 1072100" d="M247.644,153.4H235.2a2.766,2.766,0,1,1,0-5.532h12.448a2.766,2.766,0,0,1,0,5.532" transform="translate(12.679 8.066)" fill="#ffb70f"/>
          <path id="Trazado_1072101" data-name="Trazado 1072101" d="M257.941,171.994H226.132a1.037,1.037,0,1,1,0-2.074h31.809a1.037,1.037,0,1,1,0,2.074" transform="translate(12.279 9.269)" fill="#fff"/>
          <path id="Trazado_1072102" data-name="Trazado 1072102" d="M257.941,177.24H226.132a1.037,1.037,0,1,1,0-2.074h31.809a1.037,1.037,0,1,1,0,2.074" transform="translate(12.279 9.555)" fill="#fff"/>
          <path id="Trazado_1072103" data-name="Trazado 1072103" d="M257.941,182.486H226.132a1.037,1.037,0,1,1,0-2.074h31.809a1.037,1.037,0,1,1,0,2.074" transform="translate(12.279 9.841)" fill="#fff"/>
          <path id="Trazado_1072104" data-name="Trazado 1072104" d="M257.941,187.732H226.132a1.037,1.037,0,1,1,0-2.074h31.809a1.037,1.037,0,1,1,0,2.074" transform="translate(12.279 10.128)" fill="#fff"/>
          <path id="Trazado_1072105" data-name="Trazado 1072105" d="M257.941,192.978H226.132a1.037,1.037,0,1,1,0-2.074h31.809a1.037,1.037,0,1,1,0,2.074" transform="translate(12.279 10.414)" fill="#fff"/>
          <path id="Trazado_1072106" data-name="Trazado 1072106" d="M290.461,167.881h-30.2v-1.632a14.707,14.707,0,0,1,14.69-14.691h.816a14.707,14.707,0,0,1,14.691,14.691v1.632Zm-26.815-3.265h23.435a11.445,11.445,0,0,0-11.31-9.794h-.816a11.443,11.443,0,0,0-11.309,9.794" transform="translate(14.197 8.267)" fill="#484f66"/>
          <path id="Trazado_1072107" data-name="Trazado 1072107" d="M300.164,163.941H251.182a4.073,4.073,0,0,0-4.073,4.073v31.844a4.073,4.073,0,0,0,4.073,4.073h48.983a4.073,4.073,0,0,0,4.073-4.073V168.014a4.073,4.073,0,0,0-4.073-4.073" transform="translate(13.48 8.943)" fill="#22c2f0"/>
          <path id="Trazado_1072108" data-name="Trazado 1072108" d="M300.388,163.96a4.176,4.176,0,0,1,.593,2.144v17.375a18.412,18.412,0,0,1-18.411,18.411H248.056c-.13,0-.257-.007-.385-.019a4.2,4.2,0,0,0,3.612,2.06H300a4.2,4.2,0,0,0,4.2-4.2V168.144a4.2,4.2,0,0,0-3.819-4.184" transform="translate(13.51 8.944)" fill="#0da5d3"/>
          <path id="Trazado_1072109" data-name="Trazado 1072109" d="M293.205,173.4H256.479a1.632,1.632,0,0,1,0-3.265h36.726a1.632,1.632,0,1,1,0,3.265" transform="translate(13.902 9.281)" fill="#fff"/>
          <path id="Trazado_1072110" data-name="Trazado 1072110" d="M293.205,181.136H256.479a1.632,1.632,0,0,1,0-3.265h36.726a1.632,1.632,0,1,1,0,3.265" transform="translate(13.902 9.703)" fill="#fff"/>
          <path id="Trazado_1072111" data-name="Trazado 1072111" d="M293.205,188.875H256.479a1.632,1.632,0,0,1,0-3.265h36.726a1.632,1.632,0,1,1,0,3.265" transform="translate(13.902 10.125)" fill="#fff"/>
          <path id="Trazado_1072112" data-name="Trazado 1072112" d="M293.205,196.614H256.479a1.632,1.632,0,0,1,0-3.265h36.726a1.632,1.632,0,1,1,0,3.265" transform="translate(13.902 10.547)" fill="#fff"/>
          <path id="Trazado_1072113" data-name="Trazado 1072113" d="M140.774,47.66v0l0,0Z" transform="translate(7.679 2.6)" fill="#ff6993"/>
          <path id="Trazado_1072114" data-name="Trazado 1072114" d="M158.37,34.952a16.292,16.292,0,0,0-21.746,23.085v0l0,0q1.115,1.324,2.2,2.7a109.9,109.9,0,0,1,10.543,15.985.907.907,0,0,0,1.611-.022c2.531-5.1,6.955-10.726,10.832-15.963.791-1.065,1.557-2.116,2.282-3.142a16.3,16.3,0,0,0-5.724-22.65M141.147,48.476l0,0h0Z" transform="translate(7.306 1.788)" fill="#805fc2"/>
          <path id="Trazado_1072115" data-name="Trazado 1072115" d="M160.225,48.191A10.316,10.316,0,1,1,149.91,37.879a10.3,10.3,0,0,1,10.316,10.312" transform="translate(7.615 2.066)" fill="#fff"/>
          <path id="Trazado_1072116" data-name="Trazado 1072116" d="M150.481,40.829l1.414,4.355a.724.724,0,0,0,.688.5h4.578a.722.722,0,0,1,.425,1.306l-3.7,2.692a.717.717,0,0,0-.262.807l1.413,4.354a.72.72,0,0,1-1.108.807l-3.7-2.691a.725.725,0,0,0-.85,0l-3.7,2.691a.721.721,0,0,1-1.109-.807l1.414-4.354a.719.719,0,0,0-.262-.807L142,46.987a.722.722,0,0,1,.425-1.306h4.578a.72.72,0,0,0,.687-.5l1.415-4.355a.722.722,0,0,1,1.373,0" transform="translate(7.73 2.2)" fill="#ffb70f"/>
          <path id="Trazado_1072117" data-name="Trazado 1072117" d="M145.765,81.4a3.807,3.807,0,1,1,3.807,3.807,3.807,3.807,0,0,1-3.807-3.807" transform="translate(7.951 4.233)" fill="#805fc2"/>
          <path id="Trazado_1072118" data-name="Trazado 1072118" d="M342.836,73.429a13.622,13.622,0,0,0-11.606,20.752l-.5,6.98,6.066-1.9a13.621,13.621,0,1,0,6.038-25.831" transform="translate(17.959 4.006)" fill="#ffb70f"/>
          <path id="Trazado_1072119" data-name="Trazado 1072119" d="M335.1,83.221a3.9,3.9,0,0,1,4.532-2.127c1.987.62,2.748,2.939,2.833,3.206,0,.1,0,.2,0,.3,0-.1,0-.2.005-.3.083-.267.845-2.586,2.833-3.206a3.9,3.9,0,0,1,4.532,2.127c1.39,2.9-1.531,6.5-1.861,6.9a8.033,8.033,0,0,1-5.535,2.918l-.058,0-.077-.007a8.047,8.047,0,0,1-5.341-2.915c-.337-.415-3.25-4-1.861-6.9" transform="translate(18.26 4.415)" fill="#fff"/>
          <path id="Trazado_1072120" data-name="Trazado 1072120" d="M357.7,11.33H328.447a3.578,3.578,0,0,0-3.57,3.828L326.185,33.9a3.579,3.579,0,0,0,3.57,3.33h8.765l-.824,6.884,8.44-6.884h10.255a3.579,3.579,0,0,0,3.57-3.33l1.308-18.746a3.578,3.578,0,0,0-3.57-3.828" transform="translate(17.722 0.618)" fill="#22c2f0"/>
          <path id="Trazado_1072121" data-name="Trazado 1072121" d="M342.6,15.06l2.781,5.636,6.22.9-4.5,4.387,1.062,6.194L342.6,29.256l-5.563,2.924,1.063-6.194L333.6,21.6l6.22-.9Z" transform="translate(18.198 0.822)" fill="#fff"/>
          <path id="Trazado_1072122" data-name="Trazado 1072122" d="M201.2,161.407a11.04,11.04,0,0,0-9.407,16.821l-2.456,5.832,6.968-1.715a11.041,11.041,0,1,0,4.894-20.938" transform="translate(10.328 8.805)" fill="#805fc2"/>
          <path id="Trazado_1072123" data-name="Trazado 1072123" d="M197.974,169.886v5.943H195.9a1.773,1.773,0,0,1-1.773-1.774v-2.394a1.775,1.775,0,0,1,1.773-1.776Z" transform="translate(10.589 9.267)" fill="#fff"/>
          <path id="Trazado_1072124" data-name="Trazado 1072124" d="M205.258,175.882c-.713.808-6.74.133-6.74.133v-5.942a2.913,2.913,0,0,0,1.281-1.522c.291-.979.728-2.235,1.484-2.033s1.037,2.242.1,3.555c0,0,2.944-.8,3.744.075.758.823.8,4.979.129,5.735" transform="translate(10.829 9.082)" fill="#fff"/>
          <path id="Trazado_1072125" data-name="Trazado 1072125" d="M31.927,60.591A17.481,17.481,0,0,1,46.822,87.226l3.889,9.235L39.677,93.744a17.482,17.482,0,1,1-7.75-33.153" transform="translate(0.788 3.305)" fill="#ff6993"/>
          <path id="Trazado_1072126" data-name="Trazado 1072126" d="M29.567,74.017v9.411h-3.29a2.809,2.809,0,0,1-2.808-2.808V76.828a2.812,2.812,0,0,1,2.808-2.811Z" transform="translate(1.28 4.038)" fill="#fff"/>
          <path id="Trazado_1072127" data-name="Trazado 1072127" d="M41.1,83.51c-1.128,1.279-10.671.211-10.671.211V74.31A4.609,4.609,0,0,0,32.456,71.9c.461-1.55,1.154-3.538,2.351-3.221s1.641,3.551.162,5.629c0,0,4.662-1.261,5.927.118,1.2,1.3,1.261,7.885.2,9.082" transform="translate(1.66 3.745)" fill="#fff"/>
          <path id="Trazado_1072128" data-name="Trazado 1072128" d="M302.024,51.746l-56.313-1.028a3.381,3.381,0,0,1-3.319-3.381V28.33a3.381,3.381,0,0,1,3.319-3.381l56.313-1.028a3.381,3.381,0,0,1,3.443,3.38V48.367a3.381,3.381,0,0,1-3.443,3.38" transform="translate(13.222 1.305)" fill="#ffb300"/>
          <path id="Trazado_1072129" data-name="Trazado 1072129" d="M265.895,47.933l-2.761,8.77L279.3,48.669Z" transform="translate(14.354 2.615)" fill="#ffb300"/>
          <path id="Trazado_1072130" data-name="Trazado 1072130" d="M299.33,38.539h-37.4a.534.534,0,1,0,0,1.067h37.4a.534.534,0,1,0,0-1.067" transform="translate(14.259 2.102)" fill="#fff"/>
          <path id="Trazado_1072131" data-name="Trazado 1072131" d="M291.585,42.259h-37.9a.534.534,0,0,0,0,1.067h37.9a.534.534,0,1,0,0-1.067" transform="translate(13.809 2.305)" fill="#fff"/>
          <path id="Trazado_1072132" data-name="Trazado 1072132" d="M247.257,39.606h12.488a.534.534,0,1,0,0-1.067H247.257a.534.534,0,1,0,0,1.067" transform="translate(13.459 2.102)" fill="#fff"/>
          <path id="Trazado_1072133" data-name="Trazado 1072133" d="M251.147,42.259h-3.891a.534.534,0,0,0,0,1.067h3.891a.534.534,0,0,0,0-1.067" transform="translate(13.459 2.305)" fill="#fff"/>
          <path id="Trazado_1072134" data-name="Trazado 1072134" d="M297.571,42.259h-3.388a.534.534,0,1,0,0,1.067h3.388a.534.534,0,0,0,0-1.067" transform="translate(16.019 2.305)" fill="#fff"/>
          <path id="Trazado_1072135" data-name="Trazado 1072135" d="M261.931,32.509h17.647a.534.534,0,0,0,0-1.067H261.931a.534.534,0,1,0,0,1.067" transform="translate(14.259 1.715)" fill="#fff"/>
          <path id="Trazado_1072136" data-name="Trazado 1072136" d="M281.764,32.509h16.485a.534.534,0,0,0,0-1.067H281.764a.534.534,0,0,0,0,1.067" transform="translate(15.341 1.715)" fill="#fff"/>
          <path id="Trazado_1072137" data-name="Trazado 1072137" d="M299.736,35.162H253.684a.534.534,0,0,0,0,1.067h46.052a.534.534,0,1,0,0-1.067" transform="translate(13.809 1.918)" fill="#fff"/>
          <path id="Trazado_1072138" data-name="Trazado 1072138" d="M247.257,32.509h12.488a.534.534,0,0,0,0-1.067H247.257a.534.534,0,0,0,0,1.067" transform="translate(13.459 1.715)" fill="#fff"/>
          <path id="Trazado_1072139" data-name="Trazado 1072139" d="M247.257,36.229h3.891a.534.534,0,0,0,0-1.067h-3.891a.534.534,0,0,0,0,1.067" transform="translate(13.459 1.918)" fill="#fff"/>
        </g>
      </g>
    </g>
  </g>
</svg>
