<svg xmlns="http://www.w3.org/2000/svg" xmlns:xlink="http://www.w3.org/1999/xlink" width="123.825" height="122.814" viewBox="0 0 123.825 122.814">
  <defs>
    <clipPath id="clip-path">
      <rect id="Rectángulo_479453" data-name="Rectángulo 479453" width="86.615" height="92.601" fill="none"/>
    </clipPath>
  </defs>
  <g id="Grupo_1214365" data-name="Grupo 1214365" transform="translate(-394 -3412.517)">
    <path id="Trazado_1044244" data-name="Trazado 1044244" d="M23.495,5.506C10.84,19.028-.115,57.157,0,76c.159,25.841,32.748,48.037,50.3,47.786,29.429-.42,43.638-24.436,44.94-46.218,2.784-46.6-51.263-93.949-71.749-72.06" transform="translate(517.825 3431.9) rotate(90)" fill="#194e57"/>
    <path id="Polígono_47" data-name="Polígono 47" d="M3.263,3.015a2,2,0,0,1,3.468,0L8.27,5.693a2,2,0,0,1-1.734,3H3.457a2,2,0,0,1-1.734-3Z" transform="translate(402.69 3492.124) rotate(90)" fill="#cef1d4"/>
    <path id="Polígono_48" data-name="Polígono 48" d="M3.263,3.015a2,2,0,0,1,3.468,0L8.27,5.693a2,2,0,0,1-1.734,3H3.457a2,2,0,0,1-1.734-3Z" transform="translate(478.959 3528.264) rotate(135)" fill="#ff9684"/>
    <path id="Polígono_49" data-name="Polígono 49" d="M3.263,3.015a2,2,0,0,1,3.468,0L8.27,5.693a2,2,0,0,1-1.734,3H3.457a2,2,0,0,1-1.734-3Z" transform="translate(511.881 3431.439) rotate(135)" fill="#c5edf4"/>
    <path id="Trazado_1044260" data-name="Trazado 1044260" d="M22.026,8.226a8.718,8.718,0,0,0-16.709,0,9.273,9.273,0,0,0-.079,4.414c.552,1.813,2.128,4.965,6.226,9.852a4.505,4.505,0,0,0,.552.631,4.131,4.131,0,0,0,.867.788,1.669,1.669,0,0,0,1.5,0,4.131,4.131,0,0,0,.867-.788,4.506,4.506,0,0,1,.552-.631c4.1-4.808,5.675-8.039,6.148-9.852A7.666,7.666,0,0,0,22.026,8.226ZM17.613,10.67a3.941,3.941,0,1,1-3.941-3.941A3.9,3.9,0,0,1,17.613,10.67Z" transform="translate(495.474 3437.675)" fill="#ff9684"/>
    <g id="Grupo_1214669" data-name="Grupo 1214669" transform="translate(405.254 3412.517)">
      <g id="Grupo_1214668" data-name="Grupo 1214668" transform="translate(0 0)" clip-path="url(#clip-path)">
        <path id="Trazado_1055939" data-name="Trazado 1055939" d="M54.75,42.974A18,18,0,0,1,36.716,61.008h-.051c-.658-7.446-7.446-21.175-13.473-32.142A263.6,263.6,0,0,1,36.716,4.274S39.959,9.416,43.682,16.1C48.722,25.244,54.75,37.225,54.75,42.974" transform="translate(30.141 5.555)" fill="#fbb03b"/>
        <path id="Trazado_1055940" data-name="Trazado 1055940" d="M26.5,28.4A12.874,12.874,0,1,1,.75,28.4C.75,21.279,13.623.75,13.623.75S15.932,4.422,18.6,9.206C22.208,15.721,26.5,24.289,26.5,28.4" transform="translate(0.975 0.975)" fill="#fbb03b"/>
        <path id="Trazado_1055941" data-name="Trazado 1055941" d="M55.267,57.566a23.174,23.174,0,0,1-46.349,0C8.918,44.751,32.094,7.8,32.094,7.8s4.153,6.611,8.964,15.223c.23.4.458.835.685,1.265C47.77,35.253,54.559,48.98,55.216,56.426c.025.407.051.786.051,1.141" transform="translate(11.59 10.135)" fill="#29abe2"/>
        <path id="Trazado_1055942" data-name="Trazado 1055942" d="M44.328,17.279C49.369,26.423,54.75,37.224,54.75,42.973A18,18,0,0,1,36.718,61.007h-.051c-.66-7.446-7.448-21.173-13.476-32.139A263.351,263.351,0,0,1,36.718,4.275s2.019,3.2,4.7,7.842" transform="translate(30.141 5.557)" fill="none" stroke="#333" stroke-linecap="round" stroke-linejoin="round" stroke-width="1.5"/>
        <path id="Trazado_1055943" data-name="Trazado 1055943" d="M9.091,8.438C11.565,4.038,13.626.75,13.626.75s2.307,3.672,4.981,8.458c3.6,6.515,7.892,15.083,7.892,19.19A12.874,12.874,0,1,1,.75,28.4c0-3.3,2.778-9.5,5.751-15.194" transform="translate(0.975 0.975)" fill="none" stroke="#333" stroke-linecap="round" stroke-linejoin="round" stroke-width="1.5"/>
        <path id="Trazado_1055944" data-name="Trazado 1055944" d="M44.825,76.931A23.177,23.177,0,0,1,8.919,57.566C8.919,44.751,32.092,7.8,32.092,7.8s4.153,6.611,8.966,15.221c.228.407.455.837.683,1.267C47.769,35.253,54.557,48.98,55.215,56.426c.025.4.051.786.051,1.141A23.021,23.021,0,0,1,52.658,68.28a23.329,23.329,0,0,1-2.794,4.165" transform="translate(11.591 10.135)" fill="none" stroke="#333" stroke-linecap="round" stroke-linejoin="round" stroke-width="1.5"/>
        <path id="Trazado_1055945" data-name="Trazado 1055945" d="M20.165,53.68a23.129,23.129,0,0,1-8.118-17.622c0-3.116,1.375-7.665,3.454-12.763" transform="translate(15.657 30.275)" fill="none" stroke="#333" stroke-linecap="round" stroke-linejoin="round" stroke-width="1.5"/>
      </g>
    </g>
  </g>
</svg>
