<svg xmlns="http://www.w3.org/2000/svg" xmlns:xlink="http://www.w3.org/1999/xlink" width="100.108" height="69.396" viewBox="0 0 100.108 69.396">
  <defs>
    <clipPath id="clip-path">
      <rect id="Rectángulo_478298" data-name="Rectángulo 478298" width="84.05" height="61.239" fill="none"/>
    </clipPath>
  </defs>
  <g id="Grupo_1213012" data-name="Grupo 1213012" transform="translate(-1244.417 -231.255)">
    <path id="Trazado_1031212" data-name="Trazado 1031212" d="M12.521,2.934C5.777,10.14-.061,30.46,0,40.5.086,54.272,17.453,66.1,26.808,65.966c15.683-.224,23.255-13.022,23.949-24.63C52.241,16.5,23.439-8.731,12.521,2.934" transform="matrix(-0.259, 0.966, -0.966, -0.259, 1321.288, 248.328)" fill="#ff9684"/>
    <g id="Grupo_1211829" data-name="Grupo 1211829" transform="translate(1260.476 239.412)">
      <g id="Grupo_1211828" data-name="Grupo 1211828" transform="translate(0 0)" clip-path="url(#clip-path)">
        <path id="Trazado_1031184" data-name="Trazado 1031184" d="M17.044,23.293s-4.447,4.368-6.575,5.583c-2.112,1.232-5.7,2.768-5.7,2.768l-2.96-5.295S6.006,22.27,8.9,21.165a13.434,13.434,0,0,1,5.935-.7Z" transform="translate(0.523 5.882)" fill="#fdbd28"/>
        <path id="Trazado_1031185" data-name="Trazado 1031185" d="M15.012,20.7a47.245,47.245,0,0,1-6.19,5.231c-2.112,1.232-5.7,2.751-5.7,2.751L1.814,26.349S6.007,22.27,8.9,21.165a13.435,13.435,0,0,1,5.935-.7Z" transform="translate(0.523 5.882)" fill="#fee5ab"/>
        <path id="Trazado_1031186" data-name="Trazado 1031186" d="M1.347,26.346a4.861,4.861,0,0,0,2.2,3.811c1.215.7,2.2.134,2.2-1.269a4.865,4.865,0,0,0-2.2-3.813c-1.216-.7-2.2-.133-2.2,1.27" transform="translate(0.389 7.149)" fill="#194e57"/>
        <path id="Trazado_1031187" data-name="Trazado 1031187" d="M5.625,28.887a1.658,1.658,0,0,1-.505,1.328,1.852,1.852,0,0,1-1.148-.289,4.862,4.862,0,0,1-2.2-3.813,1.646,1.646,0,0,1,.506-1.328,1.847,1.847,0,0,1,1.148.29,4.855,4.855,0,0,1,2.2,3.811" transform="translate(0.511 7.149)" fill="#40c4d9"/>
        <path id="Trazado_1031188" data-name="Trazado 1031188" d="M3.735,25.262a4.863,4.863,0,0,1,2.2,3.811,1.657,1.657,0,0,1-.5,1.328,1.1,1.1,0,0,1-.713.244,2,2,0,0,1-.983-.3,4.863,4.863,0,0,1-2.2-3.813c0-1.411.993-1.965,2.2-1.269M.7,26.531a5.709,5.709,0,0,0,2.618,4.536,2.158,2.158,0,0,0,3.452-1.993,5.706,5.706,0,0,0-2.618-4.536A2.159,2.159,0,0,0,.7,26.531" transform="translate(0.202 6.962)" fill="#194e57"/>
        <path id="Trazado_1031189" data-name="Trazado 1031189" d="M40.911,40.986s-4.448,4.368-6.575,5.583c-2.112,1.232-5.7,2.768-5.7,2.768l-2.96-5.3s4.192-4.079,7.087-5.182a13.446,13.446,0,0,1,5.935-.7Z" transform="translate(7.409 10.987)" fill="#fdbd28"/>
        <path id="Trazado_1031190" data-name="Trazado 1031190" d="M38.879,38.395a47.261,47.261,0,0,1-6.191,5.231c-2.112,1.232-5.7,2.751-5.7,2.751l-1.312-2.335s4.192-4.079,7.087-5.184a13.434,13.434,0,0,1,5.935-.7Z" transform="translate(7.409 10.987)" fill="#fee5ab"/>
        <path id="Trazado_1031191" data-name="Trazado 1031191" d="M25.213,44.039a4.861,4.861,0,0,0,2.2,3.811c1.215.7,2.2.134,2.2-1.269a4.865,4.865,0,0,0-2.2-3.813c-1.216-.7-2.2-.133-2.2,1.27" transform="translate(7.274 12.253)" fill="#194e57"/>
        <path id="Trazado_1031192" data-name="Trazado 1031192" d="M29.493,46.58a1.661,1.661,0,0,1-.5,1.328,1.854,1.854,0,0,1-1.149-.289,4.866,4.866,0,0,1-2.2-3.813,1.646,1.646,0,0,1,.508-1.328,1.847,1.847,0,0,1,1.148.29,4.855,4.855,0,0,1,2.2,3.811" transform="translate(7.396 12.253)" fill="#40c4d9"/>
        <path id="Trazado_1031193" data-name="Trazado 1031193" d="M27.6,42.955a4.863,4.863,0,0,1,2.2,3.811,1.657,1.657,0,0,1-.5,1.328,1.1,1.1,0,0,1-.713.244,2,2,0,0,1-.983-.3,4.863,4.863,0,0,1-2.2-3.813c0-1.415.995-1.965,2.2-1.269m-3.036,1.269a5.711,5.711,0,0,0,2.618,4.536,2.158,2.158,0,0,0,3.452-1.993,5.706,5.706,0,0,0-2.618-4.536,2.158,2.158,0,0,0-3.452,1.993" transform="translate(7.087 12.066)" fill="#194e57"/>
        <path id="Trazado_1031194" data-name="Trazado 1031194" d="M40.7,17.391l-1.747,1.548c-.58-1.133-4.992-8.395-5.517-11.441-.108-.539-.043-.354.281-.786Z" transform="translate(9.633 1.937)" fill="#fdbd28"/>
        <path id="Trazado_1031195" data-name="Trazado 1031195" d="M28.517,33.98l-14.2,8.194A117.81,117.81,0,0,1,9.341,31.353c-.849-2.6-6.631-15.7-8.813-20.632C0,9.548.513,8.295,1.9,7.379L3.64,6.246,18.046,25.262Z" transform="translate(0.094 1.803)" fill="#fdbd28"/>
        <path id="Trazado_1031196" data-name="Trazado 1031196" d="M27.537,33.693,16.581,40.026A115.954,115.954,0,0,1,11.608,29.2c-.849-2.6-6.629-15.7-8.813-20.632a2.256,2.256,0,0,1,.242-2.264Z" transform="translate(0.749 1.821)" fill="#fee5ab"/>
        <path id="Trazado_1031197" data-name="Trazado 1031197" d="M45.4,15.014l-8.975,6.024A79.188,79.188,0,0,1,32.286,9a2.011,2.011,0,0,1,.687-1.886l1.051-.876,11.2,8.61Z" transform="translate(9.307 1.801)" fill="#fdbd28"/>
        <path id="Trazado_1031198" data-name="Trazado 1031198" d="M44.96,14.852l-7.628,5.121c-.579-1.131-3.6-8.987-4.125-12.032a1.918,1.918,0,0,1,.35-1.523l.2-.175Z" transform="translate(9.57 1.801)" fill="#fee5ab"/>
        <path id="Trazado_1031199" data-name="Trazado 1031199" d="M59.436,16.228C58.371,18.815,49.781,29.9,48.379,31.084S15.916,52.2,10.781,53.657C6.468,54.883,2.006,53.273.417,51.762A1.36,1.36,0,0,1,0,50.711,1.288,1.288,0,0,1,.013,50.5S2.143,44.1,6.226,40.76s50.528-28.4,51.39-28.4c.822,0,1.327-.084,1.752.809.026.054.04.108.067.162a1.923,1.923,0,0,0,.39.62c.264.314.365.472-.39,2.277" transform="translate(0 3.566)" fill="#f6a221"/>
        <path id="Trazado_1031200" data-name="Trazado 1031200" d="M54.755,12.987c-4.622,3.921-31.405,24.075-38.763,28.8Z" transform="translate(4.614 3.748)" fill="#fee5ab"/>
        <path id="Trazado_1031201" data-name="Trazado 1031201" d="M54.755,12.987c-3.643,3.129-7.5,5.99-11.331,8.874S31.979,31.178,28.018,33.884s-7.93,5.407-12.026,7.906c1.96-1.383,11.679-8.4,11.679-8.4l15.4-12.015s9.775-6.937,11.684-8.388" transform="translate(4.614 3.748)" fill="#fff"/>
        <path id="Trazado_1031202" data-name="Trazado 1031202" d="M59.342,15.871c-1.064,2.587-9.655,13.671-11.057,14.857S15.822,51.845,10.688,53.3c-4.313,1.227-8.53.142-10.364-1.894a17.368,17.368,0,0,0,14.1-1.442c7.87-4.595,32.707-18.454,35.954-22.039,2.736-3.019,5.882-10.5,9.359-14.331.269.309.365.472-.39,2.277" transform="translate(0.093 3.923)" fill="#ed8719"/>
        <path id="Trazado_1031203" data-name="Trazado 1031203" d="M63.951,22.289c.39.151-.871,1.429-.871,1.429a7.969,7.969,0,0,1-3.274.4c-4.192-.256-15.247-.365-19.437-1.051-1.066-.175-1.725-.446-1.779-.836-.432-2.884,8.152-7.021,8.152-7.021l.986.995s11.133,4.11,16.224,6.081" transform="translate(11.129 4.39)" fill="#fdbd28"/>
        <path id="Trazado_1031204" data-name="Trazado 1031204" d="M62.431,21.7c-5.269-.309-21.67.7-21.954-1.258-.269-1.834,3.373-3.973,6.707-4.457,0,0,15.692,5.742,15.247,5.715" transform="translate(11.674 4.613)" fill="#fee5ab"/>
        <path id="Trazado_1031205" data-name="Trazado 1031205" d="M36.558,22.866c-.9-.816,4.7-14.985,6.684-20.1A6.572,6.572,0,0,1,45.932.082a1.318,1.318,0,0,1,1.745,1.492L46.029,17.946s-7.489,6.705-9.471,4.92" transform="translate(10.519 0.001)" fill="#ed8719"/>
        <path id="Trazado_1031206" data-name="Trazado 1031206" d="M79.168,46.56l-1.98,1a9.906,9.906,0,0,1-5.782.8c-8.544-1.267-31.225-4.595-35.738-5.094-3.881-.419-11.388-.769-15.632-1.537-1.874-.336-3.1-.768-3.113-1.321-.04-2.059,12.3-7.405,14.2-8.207l15.094,6.051Z" transform="translate(4.882 9.289)" fill="#fdbd28"/>
        <path id="Trazado_1031207" data-name="Trazado 1031207" d="M77.057,46.2a10.517,10.517,0,0,1-3.382.027c-8.544-1.267-31.223-4.595-35.738-5.094-3.881-.419-11.387-.768-15.632-1.537-1.874-.336-3.1-.768-3.113-1.321a1.247,1.247,0,0,1,.417-.8c1.173-.687,2.535-1.415,3.9-2.075,3.5-1.752,6.967-3.207,6.967-3.207Z" transform="translate(5.537 9.289)" fill="#fee5ab"/>
        <path id="Trazado_1031208" data-name="Trazado 1031208" d="M43.023,3.929c-.169.169-6.49,16.9-6.135,17.074a1.9,1.9,0,0,0,2.176-.921c.225-.562,3.958-16.153,3.958-16.153" transform="translate(10.639 1.134)" fill="#fdbd28"/>
        <path id="Trazado_1031209" data-name="Trazado 1031209" d="M5.123,42.494c1.868,1.078,8.259-.863,14.276-4.336S46.828,19.492,44.96,18.412,18.648,30.779,12.632,34.253s-9.378,7.163-7.509,8.241" transform="translate(1.329 5.295)" fill="#fdbd28"/>
        <path id="Trazado_1031210" data-name="Trazado 1031210" d="M3.017,36.827a1.474,1.474,0,0,0,.832,2.149,6.252,6.252,0,0,0,1.818.393,21.678,21.678,0,0,0,3.766-.088l.51,1.519s-1.626.294-3.779.617a4.544,4.544,0,0,1-2.778-.2,2.627,2.627,0,0,1-1.54-2.559Z" transform="translate(0.529 10.626)" fill="#40c4d9"/>
        <path id="Trazado_1031211" data-name="Trazado 1031211" d="M3.347,41.313a2.709,2.709,0,0,1-1.582-2.676l1.06-1.653a.963.963,0,0,1,.128-.206l.157.115L3,37.069a.71.71,0,0,0-.054.46A2.144,2.144,0,0,0,3.9,38.9a6.018,6.018,0,0,0,1.788.384A21.74,21.74,0,0,0,9.435,39.2l.076-.006.567,1.682-.089.035a37.288,37.288,0,0,1-3.7.731,4.487,4.487,0,0,1-2.944-.325m-.606-3.818-.8,1.227a2.546,2.546,0,0,0,1.506,2.424,4.537,4.537,0,0,0,2.814.3,25.062,25.062,0,0,0,3.568-.685L9.377,39.4a22.793,22.793,0,0,1-3.708.081,6.26,6.26,0,0,1-1.848-.4,2.323,2.323,0,0,1-1.066-1.51c-.006-.026-.01-.052-.014-.076" transform="translate(0.504 10.611)" fill="#194e57"/>
      </g>
    </g>
  </g>
</svg>
